<svg xmlns="http://www.w3.org/2000/svg" width="120" height="120" viewBox="0 0 120 120">
    <path fill="#FE744E" fill-rule="nonzero" d="M59.9 45.75h1.2c10.2 0 18.45-8.4 18.45-18.75 0-4.35-1.2-6.9-2.25-8.1 0 0-.15-.15-.3-.45l-.15-.15c-1.35-1.35-5.7-4.5-15.75-4.5h-.45-.15-.6c-10.05 0-14.4 3.15-15.75 4.5l-.15.15c-.3.3-.3.45-.3.45-1.05 1.35-2.25 3.75-2.25 8.1 0 10.35 8.25 18.75 18.45 18.75zm-15.15-26.1l.3-.3.15-.15c1.05-.9 5.1-4.05 15-4.05h1.2c9.9 0 13.95 3.15 15 4.05l.15.15.3.3c.75.9 2.1 3.15 2.1 7.35 0 9.6-7.8 17.55-17.25 17.55h-1.2c-9.6 0-17.25-7.8-17.25-17.55-.6-4.35.75-6.45 1.5-7.35zM52.25 57v19.95h16.5V57h-16.5zm15.3 18.75h-14.1V58.2h14.1v17.55zM60.5 60.9h4.05v1.2h-8.1v-1.2h4.05zm0 3.15h4.05v1.2h-8.1v-1.2h4.05zm0 3h4.05v1.2h-8.1v-1.2h4.05zm1.65 5.25c0 .9-.75 1.65-1.65 1.65-.9 0-1.65-.75-1.65-1.65 0-.9.75-1.65 1.65-1.65.9 0 1.65.75 1.65 1.65zM86.9 49.35V30c0-1.65-1.35-3-3-3h-.75v.6c0-12-9.9-21.6-22.2-21.6h-1.2c-12.3 0-22.2 9.75-22.2 21.6V27h-.75c-1.65 0-3 1.35-3 3v19.35c-1.2 2.55-1.8 5.4-1.8 8.4v27.3h2.1c.45 4.2 3.75 7.35 7.8 7.8V114h37.05V92.85c4.05-.45 7.35-3.75 7.8-7.8h2.1v-27.3c0-3-.75-5.85-1.95-8.4zm-3-20.25c.6 0 1.05.45 1.05 1.05V45.9c-1.5-2.1-3.45-4.05-5.7-5.7 2.25-3.15 3.75-6.9 4.05-10.95h.6v-.15zm-24-21.15h1.2c11.1 0 20.1 8.85 20.1 19.65 0 10.8-9 19.65-20.1 19.65h-1.2c-11.1 0-20.1-8.85-20.1-19.65 0-10.8 9-19.65 20.1-19.65zM36.05 30c0-.6.45-1.05 1.05-1.05h.75c.3 4.05 1.65 7.8 4.05 10.95-2.25 1.65-4.2 3.6-5.7 5.7V30h-.15zm6.15 61.05c-3-.45-5.4-2.85-5.85-5.85h5.85v5.85zm17.25 21h-15.3v-2.4h15.3v2.4zm-15.3-4.5c.45-3.9 3.75-7.05 7.65-7.05 3.9 0 7.2 3 7.65 7.05h-15.3zm32.7 4.5h-15.3v-2.4h15.3v2.4zm-15.3-4.5c.45-3.9 3.75-7.05 7.65-7.05 3.9 0 7.2 3 7.65 7.05h-15.3zm17.25-16.5V85.2h5.85c-.45 3-2.85 5.4-5.85 5.85zm7.95-7.95H78.8V65.4h-1.95v37.05c-1.8-2.4-4.5-3.9-7.65-3.9-3.15 0-6 1.65-7.8 4.05V87.9h-1.8v14.7c-1.8-2.4-4.65-4.05-7.8-4.05-3.15 0-5.85 1.5-7.65 3.9V65.4H42.2v17.7h-7.95V57.75c0-6.45 3.45-12.3 8.85-16.2 4.05 4.65 10.05 7.65 16.95 7.65h1.2c6.75 0 12.75-3 16.95-7.65 5.4 3.9 8.85 9.75 8.85 16.2V83.1h-.3z"/>
</svg>
