<svg xmlns="http://www.w3.org/2000/svg" width="120" height="120" viewBox="0 0 120 120">
    <path fill="#FE744E" fill-rule="nonzero" d="M38.2 85.15l14.7 15.45-6.9 9.3-.45-4.05L18.4 118.6l17.7-25.5L25 92.05l13.2-6.9zm62.85-17.25C98.5 73.3 94.6 78.55 90.1 83.05c-3.6 10.65-9.6 28.35-9.6 28.35l-.45 1.5-14.7-15.45c-2.4.6-5.7 1.5-9.15 1.95h-.45l-15.6-16.2.15-.45c.6-3.3 1.65-6.6 2.4-9L27.85 58.3l1.5-.45 28.8-8.4h.15c4.65-4.2 10.05-7.95 15.6-10.2 6.9-3 16.8-5.85 24-4.95 2.55.3 4.65 1.2 6.3 2.4.15.15.6.45.6.45l.15.15c.15.15.3.45.45.6 5.7 8.25-2.55 26.4-4.35 30zm-58.2 3.45C45.4 64.3 49.6 57.85 55 52.15 46.3 54.7 35.2 58 31.15 59.2l11.7 12.15zm44.4 14.55c-5.85 5.1-12.6 9-19.65 11.25l11.7 12.15c1.35-3.9 5.1-14.85 7.95-23.4zm16.2-47.1c-.15-.15-.3-.3-.3-.45l-.45-.45c-1.35-1.05-3.15-1.8-5.4-2.1-6.75-.9-16.2 1.95-22.95 4.8-5.4 2.4-11.25 6.3-15.75 10.65C52.15 57.4 47.35 64.9 44.8 73c-.75 2.25-1.8 5.85-2.55 9.45L56.5 97.3c3.6-.6 7.2-1.5 9.45-2.1 8.1-2.25 15.9-6.75 22.35-12.9C92.95 77.95 97 72.25 99.55 67c7.2-14.85 6.6-24.45 3.9-28.2zm-2.55 2.4c3.75 4.95-1.05 15.45-2.1 17.55-1.5 3.15-3.9 6.45-6.75 9.15-3.75 3.6-8.4 6.3-13.2 7.65-1.35.45-3.6.9-5.85 1.2l-.6.15-9.15-9.6.15-.6c.45-2.25 1.05-4.35 1.5-5.7 1.5-4.8 4.35-9.3 8.25-12.9 2.7-2.7 6-4.8 9.3-6.3 1.95-.9 8.55-3.45 13.8-2.85 1.5.15 2.85.75 3.9 1.5.15.15.45.3.45.3.15.15.3.3.3.45zm-1.8 1.35l-.15-.15-.15-.15c-.6-.6-1.65-.9-2.7-1.05-3.6-.45-8.85 1.05-12.6 2.7-3 1.35-6.15 3.45-8.7 5.85-3.6 3.45-6.15 7.5-7.65 12-.45 1.2-.9 3-1.35 4.95l7.65 7.95c1.95-.3 3.75-.75 4.95-1.2 4.5-1.2 8.7-3.75 12.3-7.2 2.55-2.4 4.8-5.55 6.15-8.4 1.95-4.2 4.8-12 2.25-15.3zm-45.8-22.3c3.6.9 7.05 1.35 9.75 1.35 1.8 0 3-.15 3.75-.45.6-6.6-3.6-12.9-10.35-14.7-6.6-1.65-13.35 1.8-16.05 7.8 1.35 1.5 5.55 4.2 12.9 6zm-13.9 3.788c1.35 4.35 4.95 8.1 9.75 9.3 4.8 1.2 9.6-.3 12.9-3.45-3.45-.3-7.35-.9-11.4-1.95-3.9-.9-7.8-2.25-11.25-3.9zm.115-11c-3.9.15-6.6 1.05-7.05 2.7-.9 3.3 7.65 8.4 19.05 11.25 11.4 2.85 21.3 2.55 22.2-.9.45-1.65-1.5-3.75-4.8-5.7v.3c-.6 2.4-7.65 2.55-15.9.45-8.1-2.1-14.25-5.7-13.65-7.95l.15-.15zm49.535.25l2.7-1.35 2.7 1.35-.45-3 2.1-2.1-3-.45-1.35-2.7-1.35 2.7-3 .45 2.1 2.1-.45 3zm-69.45 29.7l-1.05-1.95-.9 1.95-2.25.3 1.65 1.5-.3 2.1 1.95-1.05 1.95 1.05-.3-2.1 1.65-1.5-2.4-.3zm-6-35.1l1.95-1.05 1.95 1.05-.3-2.1 1.5-1.5-2.25-.3-.9-1.95-1.05 1.95-2.1.3 1.5 1.5-.3 2.1z"/>
</svg>
