<svg xmlns="http://www.w3.org/2000/svg" width="202" height="60" viewBox="0 0 202 60">
    <g fill="none" fill-rule="evenodd">
        <path fill="#FE744E" d="M0 0h60v60H0z"/>
        <path fill="#343A40" d="M66.244 39.613v-2.406h7.93v2.406l-1.819.41v2.817h1.368l2.215-3.281c.555-.857 1.139-1.502 1.75-1.935.61-.433 1.371-.65 2.283-.65.455 0 .866.064 1.23.192.365.128.725.3 1.08.52l-.67 2.761-.512-.136a1.707 1.707 0 0 0-.376-.028c-.274 0-.563.105-.869.315-.305.21-.567.474-.786.793l-1.914 2.789 3.432 5.1 2.01.327V52h-5.483l-3.226-5.537h-1.532v2.734l1.819.41V52h-7.93v-2.393l2.133-.41v-9.174l-2.133-.41zm26.496-2.406c1.969 0 3.503.346 4.6 1.04 1.1.692 1.648 1.722 1.648 3.089 0 .693-.23 1.308-.69 1.846-.46.537-1.114.948-1.962 1.23 1.121.219 1.971.631 2.55 1.237.579.607.868 1.315.868 2.126 0 1.395-.522 2.448-1.566 3.159-1.043.71-2.54 1.066-4.49 1.066h-9.27v-2.393l2.133-.41v-9.174l-2.133-.41v-2.406h8.312zm-2.2 8.627v3.13h3.157c.702 0 1.222-.129 1.559-.389.337-.26.506-.645.506-1.155s-.162-.902-.486-1.176c-.323-.273-.85-.41-1.579-.41H90.54zm0-2.598h2.419c.702-.009 1.217-.132 1.545-.369.328-.237.492-.588.492-1.053 0-.537-.187-.932-.56-1.182-.374-.25-.94-.376-1.696-.376h-2.2v2.98zM110.978 52a7.22 7.22 0 0 1-.288-.759 5.985 5.985 0 0 1-.191-.786 5.492 5.492 0 0 1-1.73 1.326c-.679.337-1.456.506-2.33.506-1.45 0-2.6-.394-3.453-1.183-.852-.788-1.278-1.861-1.278-3.22 0-1.385.556-2.456 1.668-3.212 1.112-.757 2.743-1.135 4.894-1.135h2.038v-1.45c0-.71-.205-1.261-.616-1.653-.41-.392-1.016-.588-1.818-.588-.456 0-.861.052-1.217.157-.355.105-.642.23-.861.376l-.26 1.586h-3.008l.014-3.281c.73-.493 1.565-.907 2.509-1.245.943-.337 1.97-.505 3.083-.505 1.832 0 3.32.448 4.464 1.346 1.144.898 1.715 2.176 1.715 3.835v6.112c0 .227.003.442.007.642.005.2.02.392.048.574l1.217.164V52h-4.607zm-3.46-2.666a3.46 3.46 0 0 0 1.641-.39c.492-.26.875-.585 1.149-.977V45.71h-2.038c-.847 0-1.49.198-1.927.595-.438.396-.656.872-.656 1.428 0 .502.161.894.485 1.176.323.283.772.424 1.347.424zm10.514-.424c.912-.948 1.527-1.88 1.846-2.796.319-.916.497-2.221.533-3.917l.027-2.174-2.091-.41v-2.406h15.175v2.406l-2.132.41v8.914h2.146l-.273 7.493h-3.72V52h-8.722v4.43h-3.732l-.342-7.52h1.285zm6.371-6.713c-.073 1.468-.264 2.755-.574 3.863-.31 1.107-.72 2.062-1.23 2.864h4.826v-8.531h-3.008l-.014 1.804zm10.664-2.584v-2.406h5.797l.192 1.723c.437-.638.961-1.13 1.572-1.477.61-.346 1.322-.52 2.133-.52 1.832 0 3.254.716 4.265 2.147 1.012 1.431 1.518 3.313 1.518 5.647v.287c0 2.187-.506 3.946-1.518 5.277-1.011 1.33-2.424 1.996-4.238 1.996-.775 0-1.463-.143-2.064-.43a4.24 4.24 0 0 1-1.545-1.265v4.28l1.927.41v2.406h-7.834V55.28l1.928-.41V40.023l-2.133-.41zm11.485 5.114c0-1.395-.233-2.525-.698-3.391-.464-.866-1.175-1.299-2.132-1.299-.602 0-1.115.123-1.538.37a2.634 2.634 0 0 0-1.005 1.052v6.48c.246.42.58.739 1.005.957.423.22.945.329 1.565.329.966 0 1.675-.379 2.126-1.135.451-.757.677-1.782.677-3.076v-.287zM161.743 52a7.22 7.22 0 0 1-.288-.759 5.985 5.985 0 0 1-.191-.786 5.492 5.492 0 0 1-1.73 1.326c-.679.337-1.456.506-2.33.506-1.45 0-2.6-.394-3.453-1.183-.852-.788-1.278-1.861-1.278-3.22 0-1.385.556-2.456 1.668-3.212 1.112-.757 2.743-1.135 4.894-1.135h2.037v-1.45c0-.71-.205-1.261-.615-1.653-.41-.392-1.016-.588-1.818-.588-.456 0-.862.052-1.217.157-.356.105-.643.23-.861.376l-.26 1.586h-3.008l.014-3.281c.729-.493 1.565-.907 2.508-1.245.944-.337 1.971-.505 3.083-.505 1.832 0 3.32.448 4.464 1.346 1.144.898 1.716 2.176 1.716 3.835v6.112c0 .227.002.442.007.642s.02.392.048.574l1.217.164V52h-4.608zm-3.46-2.666a3.46 3.46 0 0 0 1.64-.39c.493-.26.876-.585 1.15-.977V45.71h-2.038c-.848 0-1.49.198-1.928.595-.437.396-.656.872-.656 1.428 0 .502.162.894.486 1.176.323.283.772.424 1.346.424zm24.541-12.127v5.045h-3.062l-.164-1.996h-2.53v8.941l2.12.41V52h-8.245v-2.393l2.12-.41v-8.941h-2.475l-.15 1.996h-3.063v-5.045h15.45z"/>
        <path fill="#FFF" d="M32.313 40.352c1.066 0 1.854-.247 2.365-.739.51-.492.765-1.18.765-2.064 0-.775-.3-1.413-.902-1.914-.602-.502-1.508-.752-2.72-.752-.785 0-1.475.116-2.072.348-.597.233-1.073.54-1.429.923l-.41 2.475h-2.967v-3.76c.775-.911 1.782-1.65 3.022-2.215 1.24-.565 2.616-.847 4.129-.847 2.26 0 4.047.492 5.36 1.476 1.312.985 1.968 2.388 1.968 4.211 0 .912-.274 1.746-.82 2.502-.547.757-1.3 1.349-2.256 1.777 1.093.392 1.932.983 2.515 1.77.584.79.875 1.749.875 2.879 0 1.832-.706 3.267-2.119 4.307-1.413 1.039-3.254 1.558-5.523 1.558-1.996 0-3.724-.488-5.182-1.463-1.458-.975-2.165-2.397-2.119-4.265l.027-.082h3.883c0 .774.317 1.426.95 1.955.634.528 1.447.793 2.44.793 1.122 0 2.01-.267 2.667-.8.656-.533.984-1.215.984-2.044 0-1.048-.287-1.816-.861-2.304-.574-.487-1.431-.731-2.57-.731h-2.42v-2.994h2.42zM50.974 52a7.22 7.22 0 0 1-.288-.759 5.985 5.985 0 0 1-.19-.786 5.492 5.492 0 0 1-1.73 1.326c-.68.337-1.456.506-2.331.506-1.45 0-2.6-.394-3.453-1.183-.852-.788-1.278-1.861-1.278-3.22 0-1.385.556-2.456 1.668-3.212 1.112-.757 2.744-1.135 4.895-1.135h2.037v-1.45c0-.71-.205-1.261-.616-1.653-.41-.392-1.016-.588-1.818-.588-.456 0-.861.052-1.217.157-.355.105-.642.23-.861.376l-.26 1.586h-3.008l.014-3.281c.73-.493 1.565-.907 2.509-1.245.943-.337 1.97-.505 3.083-.505 1.832 0 3.32.448 4.464 1.346 1.144.898 1.716 2.176 1.716 3.835v6.112c0 .227.002.442.006.642.005.2.02.392.048.574l1.217.164V52h-4.607zm-3.46-2.666a3.46 3.46 0 0 0 1.641-.39c.492-.26.875-.585 1.149-.977V45.71h-2.037c-.848 0-1.49.198-1.928.595-.438.396-.656.872-.656 1.428 0 .502.161.894.485 1.176.324.283.772.424 1.347.424z"/>
        <path fill="#000" d="M68.336 15.132c-.472 0-.89-.076-1.254-.228a2.432 2.432 0 0 1-.912-.648 2.81 2.81 0 0 1-.552-.996 4.165 4.165 0 0 1-.186-1.284c0-.464.06-.898.18-1.302s.302-.756.546-1.056c.244-.3.548-.536.912-.708.364-.172.794-.258 1.29-.258.352 0 .682.042.99.126.308.084.58.214.816.39.236.176.43.398.582.666.152.268.248.586.288.954H69.98c-.08-.392-.248-.696-.504-.912-.256-.216-.6-.324-1.032-.324-.368 0-.676.068-.924.204a1.647 1.647 0 0 0-.594.54 2.272 2.272 0 0 0-.318.774 4.22 4.22 0 0 0-.096.906c0 .288.034.568.102.84.068.272.174.514.318.726.144.212.33.382.558.51.228.128.506.192.834.192.504 0 .898-.132 1.182-.396.284-.264.458-.636.522-1.116h1.044c-.112.776-.396 1.37-.852 1.782-.456.412-1.084.618-1.884.618zm3.876-6.336h1.02v2.964l2.844-2.964h1.356l-2.748 2.688L77.756 15h-1.308l-2.592-2.952-.624.612V15h-1.02V8.796zm8.988 6.336c-.496 0-.93-.082-1.302-.246a2.662 2.662 0 0 1-.942-.684 2.903 2.903 0 0 1-.576-1.026 4.075 4.075 0 0 1-.192-1.272c0-.456.064-.882.192-1.278s.32-.74.576-1.032c.256-.292.57-.522.942-.69.372-.168.806-.252 1.302-.252.488 0 .92.084 1.296.252.376.168.692.398.948.69.256.292.448.636.576 1.032.128.396.192.822.192 1.278 0 .456-.064.88-.192 1.272s-.32.734-.576 1.026a2.65 2.65 0 0 1-.948.684 3.215 3.215 0 0 1-1.296.246zm0-.888c.264 0 .514-.052.75-.156.236-.104.442-.254.618-.45s.314-.44.414-.732c.1-.292.15-.626.15-1.002s-.05-.71-.15-1.002a2.162 2.162 0 0 0-.414-.738 1.763 1.763 0 0 0-.618-.456 1.84 1.84 0 0 0-.75-.156 1.84 1.84 0 0 0-.75.156 1.763 1.763 0 0 0-.618.456c-.176.2-.314.446-.414.738-.1.292-.15.626-.15 1.002s.05.71.15 1.002c.1.292.238.536.414.732.176.196.382.346.618.45.236.104.486.156.75.156zm4.164.828c-.104 0-.212-.01-.324-.03a6.942 6.942 0 0 1-.276-.054v-.9a1.312 1.312 0 0 0 .42.06.686.686 0 0 0 .606-.312c.14-.208.244-.528.312-.96.068-.432.11-.986.126-1.662.016-.676.032-1.482.048-2.418h4.356V15h-1.02V9.696H87.26c-.024.728-.05 1.418-.078 2.07a9.55 9.55 0 0 1-.21 1.71c-.112.488-.292.876-.54 1.164-.248.288-.604.432-1.068.432zm6.864-6.276h1.02v2.376h2.208c.608 0 1.096.166 1.464.498.368.332.552.798.552 1.398 0 .584-.176 1.052-.528 1.404-.352.352-.832.528-1.44.528h-3.276V8.796zm2.904 5.304c.856 0 1.284-.344 1.284-1.032 0-.68-.428-1.02-1.284-1.02h-1.884V14.1h1.884zm3.444-5.304h1.02v2.964l2.844-2.964h1.356l-2.748 2.688L104.12 15h-1.308l-2.592-2.952-.624.612V15h-1.02V8.796zm8.988 6.336c-.496 0-.93-.082-1.302-.246a2.662 2.662 0 0 1-.942-.684 2.903 2.903 0 0 1-.576-1.026 4.075 4.075 0 0 1-.192-1.272c0-.456.064-.882.192-1.278s.32-.74.576-1.032c.256-.292.57-.522.942-.69.372-.168.806-.252 1.302-.252.488 0 .92.084 1.296.252.376.168.692.398.948.69.256.292.448.636.576 1.032.128.396.192.822.192 1.278 0 .456-.064.88-.192 1.272s-.32.734-.576 1.026a2.65 2.65 0 0 1-.948.684 3.215 3.215 0 0 1-1.296.246zm0-.888c.264 0 .514-.052.75-.156.236-.104.442-.254.618-.45s.314-.44.414-.732c.1-.292.15-.626.15-1.002s-.05-.71-.15-1.002a2.162 2.162 0 0 0-.414-.738 1.763 1.763 0 0 0-.618-.456 1.84 1.84 0 0 0-.75-.156 1.84 1.84 0 0 0-.75.156 1.763 1.763 0 0 0-.618.456c-.176.2-.314.446-.414.738-.1.292-.15.626-.15 1.002s.05.71.15 1.002c.1.292.238.536.414.732.176.196.382.346.618.45.236.104.486.156.75.156zm7.548-5.448h2.868c.272 0 .534.02.786.06.252.04.478.114.678.222.2.108.36.262.48.462s.18.456.18.768c0 .336-.08.608-.24.816-.16.208-.384.38-.672.516v.012c.36.072.646.24.858.504.212.264.318.604.318 1.02 0 .264-.046.508-.138.732a1.65 1.65 0 0 1-.39.576c-.168.16-.368.286-.6.378a2.033 2.033 0 0 1-.756.138h-3.372V8.796zm3.18 5.34c.336 0 .59-.098.762-.294.172-.196.258-.442.258-.738 0-.28-.092-.504-.276-.672-.184-.168-.492-.252-.924-.252h-1.992v1.956h2.172zm-.42-2.796c.44 0 .746-.08.918-.24a.827.827 0 0 0 .258-.636c0-.256-.084-.454-.252-.594-.168-.14-.476-.21-.924-.21h-1.752v1.68h1.752zm3.72-2.544h1.02v2.376h1.92c.608 0 1.096.166 1.464.498.368.332.552.798.552 1.398 0 .584-.176 1.052-.528 1.404-.352.352-.832.528-1.44.528h-2.988V8.796zm2.616 5.304c.856 0 1.284-.344 1.284-1.032 0-.68-.428-1.02-1.284-1.02h-1.596V14.1h1.596zm3.324-5.304h1.02V15h-1.02V8.796zm5.916 0h4.248v.9h-3.228V15h-1.02V8.796zm7.74 6.336c-.496 0-.93-.082-1.302-.246a2.662 2.662 0 0 1-.942-.684 2.903 2.903 0 0 1-.576-1.026 4.075 4.075 0 0 1-.192-1.272c0-.456.064-.882.192-1.278s.32-.74.576-1.032c.256-.292.57-.522.942-.69.372-.168.806-.252 1.302-.252.488 0 .92.084 1.296.252.376.168.692.398.948.69.256.292.448.636.576 1.032.128.396.192.822.192 1.278 0 .456-.064.88-.192 1.272s-.32.734-.576 1.026a2.65 2.65 0 0 1-.948.684 3.215 3.215 0 0 1-1.296.246zm0-.888c.264 0 .514-.052.75-.156.236-.104.442-.254.618-.45s.314-.44.414-.732c.1-.292.15-.626.15-1.002s-.05-.71-.15-1.002a2.162 2.162 0 0 0-.414-.738 1.763 1.763 0 0 0-.618-.456 1.84 1.84 0 0 0-.75-.156 1.84 1.84 0 0 0-.75.156 1.763 1.763 0 0 0-.618.456c-.176.2-.314.446-.414.738-.1.292-.15.626-.15 1.002s.05.71.15 1.002c.1.292.238.536.414.732.176.196.382.346.618.45.236.104.486.156.75.156zm5.712-4.548h-2.22v-.9h5.46v.9h-2.22V15h-1.02V9.696zm6.732 5.436c-.496 0-.93-.082-1.302-.246a2.662 2.662 0 0 1-.942-.684 2.903 2.903 0 0 1-.576-1.026 4.075 4.075 0 0 1-.192-1.272c0-.456.064-.882.192-1.278s.32-.74.576-1.032c.256-.292.57-.522.942-.69.372-.168.806-.252 1.302-.252.488 0 .92.084 1.296.252.376.168.692.398.948.69.256.292.448.636.576 1.032.128.396.192.822.192 1.278 0 .456-.064.88-.192 1.272s-.32.734-.576 1.026a2.65 2.65 0 0 1-.948.684 3.215 3.215 0 0 1-1.296.246zm0-.888c.264 0 .514-.052.75-.156.236-.104.442-.254.618-.45s.314-.44.414-.732c.1-.292.15-.626.15-1.002s-.05-.71-.15-1.002a2.162 2.162 0 0 0-.414-.738 1.763 1.763 0 0 0-.618-.456 1.84 1.84 0 0 0-.75-.156 1.84 1.84 0 0 0-.75.156 1.763 1.763 0 0 0-.618.456c-.176.2-.314.446-.414.738-.1.292-.15.626-.15 1.002s.05.71.15 1.002c.1.292.238.536.414.732.176.196.382.346.618.45.236.104.486.156.75.156zm4.212-5.448h2.868c.272 0 .534.02.786.06.252.04.478.114.678.222.2.108.36.262.48.462s.18.456.18.768c0 .336-.08.608-.24.816-.16.208-.384.38-.672.516v.012c.36.072.646.24.858.504.212.264.318.604.318 1.02 0 .264-.046.508-.138.732a1.65 1.65 0 0 1-.39.576c-.168.16-.368.286-.6.378a2.033 2.033 0 0 1-.756.138h-3.372V8.796zm3.18 5.34c.336 0 .59-.098.762-.294.172-.196.258-.442.258-.738 0-.28-.092-.504-.276-.672-.184-.168-.492-.252-.924-.252h-1.992v1.956h2.172zm-.42-2.796c.44 0 .746-.08.918-.24a.827.827 0 0 0 .258-.636c0-.256-.084-.454-.252-.594-.168-.14-.476-.21-.924-.21h-1.752v1.68h1.752zm3.72-2.544h1.02v2.376h1.92c.608 0 1.096.166 1.464.498.368.332.552.798.552 1.398 0 .584-.176 1.052-.528 1.404-.352.352-.832.528-1.44.528h-2.988V8.796zm2.616 5.304c.856 0 1.284-.344 1.284-1.032 0-.68-.428-1.02-1.284-1.02h-1.596V14.1h1.596zm3.324-5.304h1.02V15h-1.02V8.796zM68.048 29.132c-.824 0-1.468-.184-1.932-.552-.464-.368-.716-.892-.756-1.572h1.032c.032.456.2.784.504.984.304.2.684.3 1.14.3.488 0 .864-.104 1.128-.312a.967.967 0 0 0 .396-.792c0-.312-.1-.556-.3-.732-.2-.176-.54-.264-1.02-.264h-.828v-.828h.66c.36 0 .668-.074.924-.222.256-.148.384-.406.384-.774 0-.232-.11-.436-.33-.612-.22-.176-.546-.264-.978-.264-.184 0-.366.02-.546.06-.18.04-.342.104-.486.192a1.149 1.149 0 0 0-.36.348c-.096.144-.156.32-.18.528h-1.032c.024-.384.116-.702.276-.954.16-.252.36-.452.6-.6.24-.148.512-.254.816-.318.304-.064.612-.096.924-.096.32 0 .62.032.9.096s.526.166.738.306c.212.14.38.314.504.522.124.208.186.456.186.744 0 .36-.102.652-.306.876a1.305 1.305 0 0 1-.69.42v.024c.144.024.288.072.432.144.144.072.272.17.384.294.112.124.204.276.276.456.072.18.108.39.108.63 0 .336-.072.628-.216.876a1.832 1.832 0 0 1-.576.612c-.24.16-.514.28-.822.36a3.78 3.78 0 0 1-.954.12zm5.508 0c-.28 0-.544-.03-.792-.09a1.783 1.783 0 0 1-.654-.3 1.468 1.468 0 0 1-.444-.54 1.797 1.797 0 0 1-.162-.798c0-.352.06-.64.18-.864a1.57 1.57 0 0 1 .474-.546c.196-.14.42-.246.672-.318.252-.072.51-.132.774-.18.28-.056.546-.098.798-.126.252-.028.474-.068.666-.12a1.11 1.11 0 0 0 .456-.228c.112-.1.168-.246.168-.438 0-.224-.042-.404-.126-.54a.864.864 0 0 0-.324-.312 1.317 1.317 0 0 0-.444-.144 3.353 3.353 0 0 0-.486-.036c-.432 0-.792.082-1.08.246-.288.164-.444.474-.468.93h-1.02c.016-.384.096-.708.24-.972a1.82 1.82 0 0 1 .576-.642c.24-.164.514-.282.822-.354.308-.072.638-.108.99-.108.28 0 .558.02.834.06.276.04.526.122.75.246.224.124.404.298.54.522.136.224.204.516.204.876v3.192c0 .24.014.416.042.528.028.112.122.168.282.168.072 0 .176-.02.312-.06v.792c-.176.104-.42.156-.732.156-.264 0-.474-.074-.63-.222-.156-.148-.234-.39-.234-.726a2.44 2.44 0 0 1-.978.726 3.233 3.233 0 0 1-1.206.222zm.228-.888c.336 0 .624-.046.864-.138.24-.092.436-.208.588-.348.152-.14.264-.292.336-.456.072-.164.108-.318.108-.462v-1.044a1.122 1.122 0 0 1-.504.216c-.208.04-.426.076-.654.108l-.69.096c-.232.032-.44.088-.624.168-.184.08-.334.194-.45.342-.116.148-.174.35-.174.606 0 .168.034.31.102.426a.85.85 0 0 0 .264.282c.108.072.234.124.378.156s.296.048.456.048zm4.5-5.448h5.064V29h-1.02v-5.304h-3.024V29h-1.02v-6.204zm6.552 6.276c-.104 0-.212-.01-.324-.03a6.942 6.942 0 0 1-.276-.054v-.9a1.312 1.312 0 0 0 .42.06.686.686 0 0 0 .606-.312c.14-.208.244-.528.312-.96.068-.432.11-.986.126-1.662.016-.676.032-1.482.048-2.418h4.356V29h-1.02v-5.304h-2.352c-.024.728-.05 1.418-.078 2.07a9.55 9.55 0 0 1-.21 1.71c-.112.488-.292.876-.54 1.164-.248.288-.604.432-1.068.432zm8.52.06c-.28 0-.544-.03-.792-.09a1.783 1.783 0 0 1-.654-.3 1.468 1.468 0 0 1-.444-.54 1.797 1.797 0 0 1-.162-.798c0-.352.06-.64.18-.864a1.57 1.57 0 0 1 .474-.546c.196-.14.42-.246.672-.318.252-.072.51-.132.774-.18.28-.056.546-.098.798-.126.252-.028.474-.068.666-.12a1.11 1.11 0 0 0 .456-.228c.112-.1.168-.246.168-.438 0-.224-.042-.404-.126-.54a.864.864 0 0 0-.324-.312 1.317 1.317 0 0 0-.444-.144 3.353 3.353 0 0 0-.486-.036c-.432 0-.792.082-1.08.246-.288.164-.444.474-.468.93h-1.02c.016-.384.096-.708.24-.972a1.82 1.82 0 0 1 .576-.642c.24-.164.514-.282.822-.354.308-.072.638-.108.99-.108.28 0 .558.02.834.06.276.04.526.122.75.246.224.124.404.298.54.522.136.224.204.516.204.876v3.192c0 .24.014.416.042.528.028.112.122.168.282.168.072 0 .176-.02.312-.06v.792c-.176.104-.42.156-.732.156-.264 0-.474-.074-.63-.222-.156-.148-.234-.39-.234-.726a2.44 2.44 0 0 1-.978.726 3.233 3.233 0 0 1-1.206.222zm.228-.888c.336 0 .624-.046.864-.138.24-.092.436-.208.588-.348.152-.14.264-.292.336-.456.072-.164.108-.318.108-.462v-1.044a1.122 1.122 0 0 1-.504.216c-.208.04-.426.076-.654.108l-.69.096c-.232.032-.44.088-.624.168-.184.08-.334.194-.45.342-.116.148-.174.35-.174.606 0 .168.034.31.102.426a.85.85 0 0 0 .264.282c.108.072.234.124.378.156s.296.048.456.048zm6-4.548h-2.22v-.9h5.46v.9h-2.22V29h-1.02v-5.304zm4.056-.9h1.02v5.064l2.928-5.064h1.308V29h-1.02v-5.064L104.948 29h-1.308v-6.204zm8.292.9h-2.22v-.9h5.46v.9h-2.22V29h-1.02v-5.304zm4.116-.9h1.02v2.376h2.208c.608 0 1.096.166 1.464.498.368.332.552.798.552 1.398 0 .584-.176 1.052-.528 1.404-.352.352-.832.528-1.44.528h-3.276v-6.204zm2.904 5.304c.856 0 1.284-.344 1.284-1.032 0-.68-.428-1.02-1.284-1.02h-1.884V28.1h1.884z"/>
    </g>
</svg>
