<svg xmlns="http://www.w3.org/2000/svg" width="162" height="40" viewBox="0 0 162 40">
    <g fill="none" fill-rule="evenodd">
        <path fill="#FFF" d="M0 0h40v40H0zM44.627 21.613v-2.406h7.93v2.406l-1.819.41v2.817h1.367l2.215-3.281c.556-.857 1.14-1.502 1.75-1.935.611-.433 1.372-.65 2.284-.65.455 0 .865.064 1.23.192s.725.3 1.08.52l-.67 2.761-.513-.136a1.707 1.707 0 0 0-.376-.028c-.273 0-.562.105-.868.315-.305.21-.567.474-.786.793l-1.914 2.789 3.432 5.1 2.01.327V34h-5.483l-3.226-5.537h-1.532v2.734l1.819.41V34h-7.93v-2.393l2.133-.41v-9.174l-2.133-.41zm26.496-2.406c1.969 0 3.502.346 4.6 1.04 1.099.692 1.648 1.722 1.648 3.089 0 .693-.23 1.308-.69 1.846-.46.537-1.115.948-1.962 1.23 1.12.219 1.97.631 2.55 1.237.578.607.868 1.315.868 2.126 0 1.395-.522 2.448-1.566 3.159-1.043.71-2.54 1.066-4.49 1.066h-9.27v-2.393l2.132-.41v-9.174l-2.132-.41v-2.406h8.312zm-2.201 8.627v3.13h3.158c.702 0 1.221-.129 1.559-.389.337-.26.506-.645.506-1.155s-.162-.902-.486-1.176c-.323-.273-.85-.41-1.579-.41h-3.158zm0-2.598h2.42c.702-.009 1.217-.132 1.545-.369.328-.237.492-.588.492-1.053 0-.537-.187-.932-.56-1.182-.374-.25-.94-.376-1.696-.376h-2.201v2.98zM89.362 34a7.22 7.22 0 0 1-.288-.759 5.985 5.985 0 0 1-.191-.786 5.492 5.492 0 0 1-1.73 1.326c-.679.337-1.456.506-2.33.506-1.45 0-2.6-.394-3.453-1.183-.852-.788-1.278-1.861-1.278-3.22 0-1.385.556-2.456 1.668-3.212 1.112-.757 2.743-1.135 4.894-1.135h2.037v-1.45c0-.71-.205-1.261-.615-1.653-.41-.392-1.016-.588-1.818-.588-.456 0-.862.052-1.217.157-.355.105-.643.23-.861.376l-.26 1.586h-3.008l.014-3.281c.729-.493 1.565-.907 2.509-1.245.943-.337 1.97-.505 3.083-.505 1.832 0 3.32.448 4.463 1.346 1.144.898 1.716 2.176 1.716 3.835v6.112c0 .227.003.442.007.642.005.2.02.392.048.574l1.217.164V34H89.36zm-3.46-2.666a3.46 3.46 0 0 0 1.641-.39c.492-.26.875-.585 1.148-.977V27.71h-2.037c-.847 0-1.49.198-1.927.595-.438.396-.657.872-.657 1.428 0 .502.162.894.486 1.176.323.283.772.424 1.346.424zm10.514-.424c.911-.948 1.527-1.88 1.846-2.796.319-.916.496-2.221.533-3.917l.027-2.174-2.092-.41v-2.406h15.176v2.406l-2.133.41v8.915h2.147l-.274 7.492h-3.718V34h-8.723v4.43h-3.732l-.342-7.52h1.285zm6.371-6.713c-.073 1.468-.264 2.755-.574 3.863-.31 1.107-.72 2.062-1.23 2.864h4.826v-8.531H102.8l-.014 1.804zm10.664-2.584v-2.406h5.797l.191 1.723c.438-.638.962-1.13 1.573-1.477.61-.346 1.321-.52 2.133-.52 1.832 0 3.253.716 4.265 2.147 1.012 1.431 1.518 3.313 1.518 5.647v.287c0 2.187-.506 3.946-1.518 5.277-1.012 1.33-2.424 1.996-4.238 1.996-.775 0-1.463-.143-2.065-.43a4.24 4.24 0 0 1-1.544-1.265v4.28l1.927.41v2.406h-7.834V37.28l1.928-.41V22.023l-2.133-.41zm11.485 5.114c0-1.395-.233-2.525-.698-3.391-.465-.866-1.175-1.299-2.133-1.299-.601 0-1.114.123-1.538.37a2.634 2.634 0 0 0-1.004 1.052v6.48c.246.42.58.739 1.004.957.424.22.946.329 1.566.329.966 0 1.675-.379 2.126-1.135.451-.757.677-1.782.677-3.076v-.287zM140.125 34a7.22 7.22 0 0 1-.287-.759 5.985 5.985 0 0 1-.192-.786 5.492 5.492 0 0 1-1.729 1.326c-.679.337-1.456.506-2.331.506-1.45 0-2.6-.394-3.452-1.183-.852-.788-1.279-1.861-1.279-3.22 0-1.385.556-2.456 1.668-3.212 1.112-.757 2.744-1.135 4.895-1.135h2.037v-1.45c0-.71-.205-1.261-.615-1.653-.41-.392-1.016-.588-1.819-.588-.455 0-.86.052-1.216.157-.356.105-.643.23-.862.376l-.26 1.586h-3.007l.013-3.281c.73-.493 1.566-.907 2.51-1.245.943-.337 1.97-.505 3.082-.505 1.832 0 3.32.448 4.464 1.346 1.144.898 1.716 2.176 1.716 3.835v6.112c0 .227.002.442.007.642.004.2.02.392.048.574l1.216.164V34h-4.607zm-3.459-2.666a3.46 3.46 0 0 0 1.64-.39c.493-.26.876-.585 1.15-.977V27.71h-2.038c-.848 0-1.49.198-1.928.595-.437.396-.656.872-.656 1.428 0 .502.162.894.485 1.176.324.283.773.424 1.347.424zm24.541-12.127v5.045h-3.062l-.165-1.996h-2.529v8.941l2.12.41V34h-8.245v-2.393l2.12-.41v-8.941h-2.475l-.15 1.996h-3.063v-5.045h15.449z"/>
        <path fill="#343A40" d="M12.313 22.352c1.066 0 1.854-.247 2.365-.739.51-.492.765-1.18.765-2.064 0-.775-.3-1.413-.902-1.914-.602-.502-1.508-.752-2.72-.752-.785 0-1.475.116-2.072.348-.597.233-1.073.54-1.429.923l-.41 2.475H4.943v-3.76c.775-.911 1.782-1.65 3.022-2.215 1.24-.565 2.616-.847 4.129-.847 2.26 0 4.047.492 5.36 1.476 1.312.985 1.968 2.388 1.968 4.211 0 .912-.274 1.746-.82 2.502-.547.757-1.3 1.349-2.256 1.777 1.093.392 1.932.983 2.515 1.77.584.79.875 1.749.875 2.879 0 1.832-.706 3.267-2.119 4.307-1.413 1.039-3.254 1.558-5.523 1.558-1.996 0-3.724-.488-5.182-1.463-1.458-.975-2.165-2.397-2.119-4.265l.027-.082h3.883c0 .774.317 1.426.95 1.955.634.528 1.447.793 2.44.793 1.122 0 2.01-.267 2.667-.8.656-.533.984-1.215.984-2.044 0-1.048-.287-1.816-.861-2.304-.574-.487-1.431-.731-2.57-.731h-2.42v-2.994h2.42zM30.974 34a7.22 7.22 0 0 1-.288-.759 5.985 5.985 0 0 1-.19-.786 5.492 5.492 0 0 1-1.73 1.326c-.68.337-1.456.506-2.331.506-1.45 0-2.6-.394-3.453-1.183-.852-.788-1.278-1.861-1.278-3.22 0-1.385.556-2.456 1.668-3.212 1.112-.757 2.744-1.135 4.895-1.135h2.037v-1.45c0-.71-.205-1.261-.616-1.653-.41-.392-1.016-.588-1.818-.588-.456 0-.861.052-1.217.157-.355.105-.642.23-.861.376l-.26 1.586h-3.008l.014-3.281c.73-.493 1.565-.907 2.509-1.245.943-.337 1.97-.505 3.083-.505 1.832 0 3.32.448 4.464 1.346 1.144.898 1.716 2.176 1.716 3.835v6.112c0 .227.002.442.006.642.005.2.02.392.048.574l1.217.164V34h-4.607zm-3.46-2.666a3.46 3.46 0 0 0 1.641-.39c.492-.26.875-.585 1.149-.977V27.71h-2.037c-.848 0-1.49.198-1.928.595-.438.396-.656.872-.656 1.428 0 .502.161.894.485 1.176.324.283.772.424 1.347.424z"/>
    </g>
</svg>
