<?xml version="1.0" encoding="utf-8"?>
<svg style="display:none" version="1.1" xmlns="http://www.w3.org/2000/svg" xmlns:xlink="http://www.w3.org/1999/xlink">
    <symbol id="vk" width="40" height="40" viewBox="0 0 40 40">
        <path fill-rule="evenodd" d="M27.237 22.008s1.415 1.397 1.764 2.045c.01.014.015.027.018.034.142.238.175.423.105.561-.117.23-.517.344-.653.354h-2.5c-.174 0-.537-.045-.977-.349-.338-.236-.672-.625-.997-1.003-.485-.563-.905-1.05-1.328-1.05a.508.508 0 0 0-.158.025c-.32.103-.73.56-.73 1.777 0 .38-.3.598-.512.598h-1.145c-.39 0-2.422-.137-4.222-2.035-2.203-2.325-4.186-6.988-4.203-7.032-.125-.301.133-.463.415-.463h2.525c.337 0 .447.205.523.387.09.211.42 1.053.962 2 .878 1.543 1.417 2.17 1.848 2.17a.5.5 0 0 0 .232-.06c.563-.314.458-2.322.433-2.739 0-.078-.001-.898-.29-1.291-.206-.285-.558-.394-.771-.434a.918.918 0 0 1 .331-.281c.387-.194 1.084-.222 1.775-.222h.385c.75.01.944.058 1.215.127.55.131.562.486.514 1.701-.015.345-.03.735-.03 1.195 0 .1-.005.207-.005.32-.017.619-.037 1.32.4 1.609a.36.36 0 0 0 .19.055c.151 0 .608 0 1.845-2.122.541-.937.961-2.042.991-2.123.025-.044.099-.177.185-.229a.443.443 0 0 1 .207-.048h2.968c.324 0 .545.048.587.173.073.199-.013.804-1.368 2.639l-.605.798c-1.229 1.61-1.229 1.692.076 2.913z"/>
    </symbol>
    <symbol id="tw" width="40" height="40" viewBox="0 0 40 40">
        <path fill-rule="evenodd" d="M26.87 17.83c0 4.34-3.3 9.342-9.339 9.342a9.263 9.263 0 0 1-5.031-1.476c.255.031.517.044.783.044a6.574 6.574 0 0 0 4.076-1.405 3.29 3.29 0 0 1-3.066-2.278 3.298 3.298 0 0 0 1.48-.057 3.286 3.286 0 0 1-2.632-3.219v-.04c.442.245.95.394 1.487.412a3.282 3.282 0 0 1-1.46-2.735c0-.6.162-1.166.445-1.65a9.333 9.333 0 0 0 6.765 3.432 3.284 3.284 0 0 1 5.594-2.995c.748-.15 1.45-.42 2.084-.797a3.298 3.298 0 0 1-1.443 1.818 6.595 6.595 0 0 0 1.885-.52 6.656 6.656 0 0 1-1.637 1.7c.007.143.009.285.009.424z"/>
    </symbol>
    <symbol id="gp" width="40" height="40" viewBox="0 0 40 40">
        <path fill-rule="evenodd" d="M19.401 27.377c-1.047.508-2.174.562-2.61.562h-.223c-.68 0-4.068-.156-4.068-3.241 0-3.031 3.69-3.27 4.82-3.27h.029c-.653-.87-.517-1.75-.517-1.75-.058.004-.141.008-.243.008-.426 0-1.247-.068-1.952-.523-.864-.555-1.302-1.502-1.302-2.81 0-3.7 4.04-3.85 4.08-3.853h4.035v.089c0 .45-.811.54-1.363.614-.188.028-.564.064-.67.118 1.022.547 1.187 1.405 1.187 2.682 0 1.455-.57 2.224-1.173 2.764-.375.335-.669.598-.669.95 0 .345.403.698.872 1.11.765.675 1.816 1.593 1.816 3.143 0 1.603-.69 2.749-2.049 3.407zm8.773-7.155h-2.605v2.604h-1.736v-2.604H21.23v-1.736h2.604v-2.604h1.736v2.604h2.605v1.736zM17.276 22.22c-.09 0-.18.003-.273.01-.77.057-1.482.346-1.996.814-.51.462-.77 1.046-.734 1.634.078 1.234 1.402 1.957 3.012 1.842 1.583-.114 2.639-1.028 2.562-2.262-.073-1.16-1.081-2.038-2.571-2.038zm1.517-6.71c-.42-1.476-1.097-1.914-2.149-1.914-.113 0-.227.018-.337.047-.456.13-.82.51-1.02 1.077-.207.573-.22 1.17-.042 1.85.321 1.217 1.186 2.1 2.057 2.1.115 0 .23-.014.337-.047.953-.268 1.55-1.723 1.154-3.113z"/>
    </symbol>
    <symbol id="fb" width="40" height="40" viewBox="0 0 40 40">
        <path fill-rule="evenodd" d="M24.253 15.135h-2.405c-.285 0-.601.375-.601.873v1.737h3.008l-.455 2.477h-2.553v7.435h-2.839v-7.435h-2.575v-2.477h2.575v-1.457c0-2.09 1.45-3.788 3.44-3.788h2.405v2.635z"/>
    </symbol>
    <symbol id="ig" width="40" height="40" viewBox="0 0 40 40">
        <path d="M28.976 23.926a6.372 6.372 0 0 1-.404 2.107 4.438 4.438 0 0 1-2.539 2.539 6.372 6.372 0 0 1-2.107.403c-.926.043-1.221.053-3.579.053-2.357 0-2.653-.01-3.579-.052a6.372 6.372 0 0 1-2.107-.404 4.438 4.438 0 0 1-2.539-2.539 6.372 6.372 0 0 1-.403-2.107c-.042-.926-.052-1.221-.052-3.579 0-2.357.01-2.653.052-3.579.014-.72.15-1.432.403-2.107a4.438 4.438 0 0 1 2.54-2.539 6.372 6.372 0 0 1 2.106-.403c.926-.042 1.222-.052 3.58-.052 2.357 0 2.652.01 3.578.052.72.014 1.433.15 2.107.403a4.438 4.438 0 0 1 2.539 2.54c.253.674.39 1.386.404 2.106.042.926.052 1.222.052 3.58 0 2.357-.01 2.652-.052 3.578zM27.32 14.93a2.997 2.997 0 0 0-1.717-1.717 5.006 5.006 0 0 0-1.68-.312c-.955-.044-1.241-.053-3.658-.053-2.416 0-2.702.01-3.657.053a5.006 5.006 0 0 0-1.68.312 2.997 2.997 0 0 0-1.717 1.717 5.006 5.006 0 0 0-.312 1.68c-.044.955-.053 1.241-.053 3.657 0 2.417.01 2.703.053 3.657.007.574.112 1.143.312 1.68.304.79.928 1.414 1.717 1.718.538.2 1.107.305 1.68.312.955.043 1.24.052 3.657.052s2.703-.009 3.657-.052a5.006 5.006 0 0 0 1.68-.312 2.997 2.997 0 0 0 1.718-1.717c.2-.538.305-1.107.312-1.68.043-.955.052-1.241.052-3.658 0-2.416-.009-2.702-.052-3.657a5.006 5.006 0 0 0-.312-1.68zm-7.055 9.985a4.647 4.647 0 1 1 0-9.295 4.647 4.647 0 0 1 0 9.295zm0-1.631a3.017 3.017 0 1 0 0-6.033 3.017 3.017 0 0 0 0 6.033zm4.831-6.761a1.086 1.086 0 1 1 0-2.172 1.086 1.086 0 0 1 0 2.172z"/>
    </symbol>
</svg>