<svg xmlns="http://www.w3.org/2000/svg" width="40" height="40" viewBox="0 0 40 40">
    <path fill="#FFF" fill-rule="evenodd" d="M26.87 17.83c0 4.34-3.3 9.342-9.339 9.342a9.263 9.263 0 0 1-5.031-1.476c.255.031.517.044.783.044a6.574 6.574 0 0 0 4.076-1.405 3.29 3.29 0 0 1-3.066-2.278 3.298 3.298 0 0 0 1.48-.057 3.286 3.286 0 0 1-2.632-3.219v-.04c.442.245.95.394 1.487.412a3.282 3.282 0 0 1-1.46-2.735c0-.6.162-1.166.445-1.65a9.333 9.333 0 0 0 6.765 3.432 3.284 3.284 0 0 1 5.594-2.995c.748-.15 1.45-.42 2.084-.797a3.298 3.298 0 0 1-1.443 1.818 6.595 6.595 0 0 0 1.885-.52 6.656 6.656 0 0 1-1.637 1.7c.007.143.009.285.009.424z"/>
</svg>
