<svg xmlns="http://www.w3.org/2000/svg" width="120" height="120" viewBox="0 0 120 120">
    <path fill="#FE744E" fill-rule="nonzero" d="M55.85 46.1c10.35 0 18.75-8.55 18.75-18.9 0-4.5-1.2-6.9-2.25-8.25-3-4.65-13.05-5.1-16.05-5.1h-.45c-10.2 0-14.55 3.15-15.9 4.5v.15c-.3.3-.3.45-.3.45-1.05 1.35-2.4 3.75-2.4 8.25 0 10.35 8.25 18.9 18.6 18.9zm-15.3-26.4l.3-.3.15-.15c1.05-.9 5.1-4.05 15-4.05h.45c1.95 0 12.3.15 14.85 4.5.75.9 1.95 3.15 1.95 7.35 0 9.75-7.8 17.55-17.4 17.55-9.6 0-17.4-7.95-17.4-17.55.15-4.2 1.35-6.3 2.1-7.35zM88.4 64.4V49.55l-5.85 1.2c-.15-.45-.3-.75-.45-1.2V30.2c0-1.65-1.35-3.15-3.15-3.15h-.6C78.05 15.35 68.15 5.9 56 5.9c-12.15 0-22.05 9.45-22.35 21.3h-.75c-1.65 0-3.15 1.35-3.15 3.15v19.5c-.15.3-.3.6-.45 1.05l-5.85-1.2v14.85c-1.35.6-2.1 1.95-1.95 3.45l.9 7.5c.15.9.45 1.5 1.05 2.1V89l13.8 2.7v23.7H74.3v-6-17.85l13.95-2.7v-11.4c.6-.45 1.05-1.2 1.05-2.1l.9-7.5c.3-1.5-.45-2.85-1.8-3.45zm-9.45-35.1c.6 0 1.05.45 1.05 1.05V46.1c-1.5-2.1-3.45-4.05-5.7-5.7 2.25-3.15 3.75-6.9 4.05-10.95h.6v-.15zM56 8c11.25 0 20.25 8.85 20.25 19.8 0 10.95-9.15 19.65-20.25 19.65-11.25 0-20.25-8.85-20.25-19.8C35.75 16.7 44.75 8 56 8zM31.85 30.2c0-.6.45-1.05 1.05-1.05h.75c.3 4.05 1.8 7.8 4.05 11.1-2.25 1.65-4.2 3.6-5.7 5.85V30.2h-.15zm7.05 11.7c4.05 4.65 10.2 7.65 17.1 7.65 6.9 0 12.9-3 17.1-7.8 3.45 2.55 6 5.7 7.5 9.3L56 56l-24.6-4.8c1.5-3.6 4.05-6.9 7.5-9.3zM24.35 75.05l-.75-6.75-.15-.75c0-.3 0-.45.15-.6.15-.45.6-.9 1.2-.9 0 0 .3 0 .6-.15h1.05c2.7 0 4.95 1.95 5.25 4.65.3 2.55-1.35 4.95-3.75 5.55-.3 0-1.2.15-1.95.3h-.45c-.6-.3-1.05-.75-1.2-1.35zm1.05 3.15h.75c1.65-.15 2.1-.3 2.25-.3 3.3-.9 5.55-4.2 5.1-7.65-.45-3.6-3.45-6.3-7.05-6.3h-.75-.3V51.8l3.3.6 1.95.45 24.3 4.8v35.4l-29.7-5.85v-9h.15zm29.55 34.95H39.5v-2.4h15.45v2.4zM39.5 108.5c.45-4.05 3.75-7.05 7.65-7.05 3.9 0 7.2 3.15 7.65 7.05H39.5zm7.8-9c-3.15 0-6 1.5-7.8 3.9V91.85l15.6 3v8.7c-1.8-2.4-4.65-4.05-7.8-4.05zm25.2 13.65H57.05v-2.4H72.5v2.4zm-15.45-4.65c.45-4.05 3.75-7.05 7.65-7.05 3.9 0 7.2 3.15 7.65 7.05h-15.3zm15.45-5.1c-1.8-2.4-4.65-3.9-7.8-3.9-3.3 0-6.15 1.65-7.95 4.2V95l15.6-3v11.4h.15zm14.1-16.2l-29.7 5.85v-35.4l24.3-4.8 1.95-.45 3.3-.6v12.15H85.4c-3.6 0-6.6 2.7-7.05 6.3-.45 3.45 1.8 6.75 5.1 7.65.15 0 .6.15 2.25.3h.75v9h.15zm1.8-18.9l-.75 6.75c0 .6-.6 1.05-1.05 1.2h-.45c-.75-.15-1.65-.3-1.95-.3-2.55-.75-4.05-3-3.75-5.55.3-2.7 2.55-4.65 5.25-4.65h1.05c.3 0 .6.15.6.15.6 0 1.05.45 1.2.9.15.15.15.45.15.6l-.3.9z"/>
</svg>
