<svg xmlns="http://www.w3.org/2000/svg" width="120" height="120" viewBox="0 0 120 120">
    <path fill="#FE744E" fill-rule="nonzero" d="M85.9 79.5H29.2V110.85h3.9v-27.9h8.4V108.9H77.8V82.95h8.4v27.9h3.9V79.5h-4.2zm-41.85 3.45c-.3.3-.45.6-.75.9v-.9h.75zm-.75 5.7c.45-2.55 1.95-4.5 3.9-5.7h7.05c2.1 1.2 3.75 3.3 4.05 6v8.1c-1.8-2.25-4.5-3.6-7.35-3.6-3.15 0-5.85 1.5-7.65 3.9v-8.7zm15.15 12.9v.6h-15c.45-3.9 3.6-6.9 7.5-6.9 3.75.15 6.75 2.7 7.5 6.3zm0 2.85v2.4h-15v-2.55l15 .15zm-.9-21.45h3.75c-.75.75-1.35 1.65-1.8 2.7-.6-1.05-1.2-1.95-1.95-2.7zm2.85 6c.3-2.55 1.8-4.8 4.05-6h7.05c2.1 1.2 3.75 3.3 4.05 6v8.4c-1.8-2.4-4.5-3.9-7.65-3.9-3.15 0-5.85 1.65-7.65 4.05v-8.55h.15zm.15 13.35c.45-3.9 3.6-6.9 7.5-6.9s7.05 3 7.5 6.9h-15zm15.15 4.35h-15v-2.4h15v2.4zm0-22.65c-.3-.3-.6-.75-.9-1.05h.9V84zM59.8 48.45c10.05 0 18.3-8.25 18.3-18.45 0-4.35-1.2-6.75-2.25-8.1 0 0-.15-.15-.3-.45l-.15-.15c-1.35-1.35-5.7-4.35-15.6-4.35h-.45c-3 0-12.75.3-15.75 4.95-.9 1.35-2.1 3.75-2.1 8.1 0 10.2 8.25 18.45 18.3 18.45zm-15-25.65c2.7-4.2 12.6-4.35 14.7-4.35h.45c9.75 0 13.65 3.15 14.7 4.05l.15.15.3.3c.75.9 1.95 3 1.95 7.2 0 9.45-7.65 17.25-16.95 17.25-9.3 0-16.95-7.65-16.95-17.25-.3-4.35.9-6.45 1.65-7.35zm-6.3 56.4l1.5-1.5c-5.4-4.65-7.5-10.65-6.3-17.55.6-3.3 1.65-5.85 2.55-7.5.15-.15.15-.3.3-.6 1.5-3 3.9-5.55 6.75-7.65 4.05 4.65 10.05 7.5 16.65 7.5 6.45 0 12.45-2.85 16.35-7.2 2.7 2.1 4.8 4.5 6.3 7.35.15.15.15.45.3.6.75 1.65 1.95 4.35 2.55 7.5 1.2 6.9-1.05 12.9-6.3 17.55l1.5 1.5c10.35-9 7.2-20.4 4.8-26.1V33c0-1.65-1.35-3-3-3h-.6c-.3-11.55-10.05-20.85-21.9-20.85-11.85 0-21.6 9.3-21.9 20.85h-.6c-1.65 0-3 1.35-3 3v18.75c-2.7 4.95-7.2 17.7 4.05 27.45zm43.8-47.25c.6 0 1.05.45 1.05 1.05v16.5c-1.5-2.4-3.45-4.5-5.85-6.3 2.4-3.15 3.9-7.05 4.2-11.1h.6v-.15zm-22.5-20.7c10.95 0 19.8 8.7 19.8 19.35 0 10.65-8.85 19.35-19.8 19.35-10.95 0-19.8-8.7-19.8-19.35 0-10.65 8.85-19.35 19.8-19.35zM36.25 33c0-.6.45-1.05 1.05-1.05h.75c.3 4.05 1.65 7.65 3.9 10.8-2.25 1.65-4.05 3.6-5.7 5.7V33zm41.1 43.35V52.5c0-.9-.6-1.65-1.5-1.65H43c-.75 0-1.5.75-1.5 1.65v23.7h-4.8v1.95c0 .9.6 1.65 1.5 1.65h42.75c.75 0 1.5-.75 1.5-1.65V76.2h-5.1v.15zm-17.85-8.7c-1.5 0-2.55-1.2-2.55-2.55 0-1.5 1.2-2.55 2.55-2.55 1.5 0 2.55 1.2 2.55 2.55 0 1.35-1.05 2.55-2.55 2.55z"/>
</svg>
