<svg xmlns="http://www.w3.org/2000/svg" width="40" height="40" viewBox="0 0 40 40">
    <path fill="#FFF" fill-rule="evenodd" d="M19.401 27.377c-1.047.508-2.174.562-2.61.562h-.223c-.68 0-4.068-.156-4.068-3.241 0-3.031 3.69-3.27 4.82-3.27h.029c-.653-.87-.517-1.75-.517-1.75-.058.004-.141.008-.243.008-.426 0-1.247-.068-1.952-.523-.864-.555-1.302-1.502-1.302-2.81 0-3.7 4.04-3.85 4.08-3.853h4.035v.089c0 .45-.811.54-1.363.614-.188.028-.564.064-.67.118 1.022.547 1.187 1.405 1.187 2.682 0 1.455-.57 2.224-1.173 2.764-.375.335-.669.598-.669.95 0 .345.403.698.872 1.11.765.675 1.816 1.593 1.816 3.143 0 1.603-.69 2.749-2.049 3.407zm8.773-7.155h-2.605v2.604h-1.736v-2.604H21.23v-1.736h2.604v-2.604h1.736v2.604h2.605v1.736zM17.276 22.22c-.09 0-.18.003-.273.01-.77.057-1.482.346-1.996.814-.51.462-.77 1.046-.734 1.634.078 1.234 1.402 1.957 3.012 1.842 1.583-.114 2.639-1.028 2.562-2.262-.073-1.16-1.081-2.038-2.571-2.038zm1.517-6.71c-.42-1.476-1.097-1.914-2.149-1.914-.113 0-.227.018-.337.047-.456.13-.82.51-1.02 1.077-.207.573-.22 1.17-.042 1.85.321 1.217 1.186 2.1 2.057 2.1.115 0 .23-.014.337-.047.953-.268 1.55-1.723 1.154-3.113z"/>
</svg>
