<svg xmlns="http://www.w3.org/2000/svg" width="40" height="40" viewBox="0 0 40 40">
    <g fill="none" fill-rule="evenodd">
        <path fill="#FFF" d="M28.976 23.926a6.372 6.372 0 0 1-.404 2.107 4.438 4.438 0 0 1-2.539 2.539 6.372 6.372 0 0 1-2.107.403c-.926.043-1.221.053-3.579.053-2.357 0-2.653-.01-3.579-.052a6.372 6.372 0 0 1-2.107-.404 4.438 4.438 0 0 1-2.539-2.539 6.372 6.372 0 0 1-.403-2.107c-.042-.926-.052-1.221-.052-3.579 0-2.357.01-2.653.052-3.579.014-.72.15-1.432.403-2.107a4.438 4.438 0 0 1 2.54-2.539 6.372 6.372 0 0 1 2.106-.403c.926-.042 1.222-.052 3.58-.052 2.357 0 2.652.01 3.578.052.72.014 1.433.15 2.107.403a4.438 4.438 0 0 1 2.539 2.54c.253.674.39 1.386.404 2.106.042.926.052 1.222.052 3.58 0 2.357-.01 2.652-.052 3.578zM27.32 14.93a2.997 2.997 0 0 0-1.717-1.717 5.006 5.006 0 0 0-1.68-.312c-.955-.044-1.241-.053-3.658-.053-2.416 0-2.702.01-3.657.053a5.006 5.006 0 0 0-1.68.312 2.997 2.997 0 0 0-1.717 1.717 5.006 5.006 0 0 0-.312 1.68c-.044.955-.053 1.241-.053 3.657 0 2.417.01 2.703.053 3.657.007.574.112 1.143.312 1.68.304.79.928 1.414 1.717 1.718.538.2 1.107.305 1.68.312.955.043 1.24.052 3.657.052s2.703-.009 3.657-.052a5.006 5.006 0 0 0 1.68-.312 2.997 2.997 0 0 0 1.718-1.717c.2-.538.305-1.107.312-1.68.043-.955.052-1.241.052-3.658 0-2.416-.009-2.702-.052-3.657a5.006 5.006 0 0 0-.312-1.68zm-7.055 9.985a4.647 4.647 0 1 1 0-9.295 4.647 4.647 0 0 1 0 9.295zm0-1.631a3.017 3.017 0 1 0 0-6.033 3.017 3.017 0 0 0 0 6.033zm4.831-6.761a1.086 1.086 0 1 1 0-2.172 1.086 1.086 0 0 1 0 2.172z"/>
    </g>
</svg>
