<svg xmlns="http://www.w3.org/2000/svg" width="202" height="60" viewBox="0 0 202 60">
    <g fill="none" fill-rule="evenodd">
        <path fill="#FFF" d="M0 0h60v60H0zM66 39.68v-2.407h7.93v2.407l-1.819.41v2.816h1.368l2.214-3.281c.556-.857 1.14-1.502 1.75-1.935.611-.433 1.372-.649 2.284-.649.455 0 .865.064 1.23.191.365.128.725.301 1.08.52l-.67 2.762-.513-.137a1.707 1.707 0 0 0-.375-.027c-.274 0-.563.104-.869.314-.305.21-.567.474-.786.793l-1.914 2.79 3.432 5.099 2.01.328v2.392h-5.483l-3.226-5.537H72.11v2.735l1.819.41v2.392H66v-2.392l2.133-.41V40.09L66 39.68zm26.496-2.407c1.969 0 3.502.347 4.6 1.04 1.099.692 1.648 1.722 1.648 3.09 0 .692-.23 1.307-.69 1.845-.46.538-1.115.948-1.962 1.23 1.12.22 1.97.632 2.55 1.238.578.606.868 1.315.868 2.126 0 1.394-.522 2.447-1.566 3.158-1.043.71-2.54 1.066-4.49 1.066h-9.27v-2.392l2.132-.41V40.09l-2.132-.41v-2.407h8.312zM90.295 45.9v3.131h3.158c.702 0 1.221-.13 1.559-.39.337-.26.506-.644.506-1.155 0-.51-.162-.902-.486-1.175-.323-.274-.85-.41-1.579-.41h-3.158zm0-2.597h2.42c.702-.01 1.217-.132 1.545-.37.328-.236.492-.587.492-1.052 0-.538-.187-.932-.56-1.183-.374-.25-.94-.376-1.696-.376h-2.201v2.98zm20.44 8.763a7.22 7.22 0 0 1-.288-.758 5.985 5.985 0 0 1-.191-.787 5.492 5.492 0 0 1-1.73 1.327c-.679.337-1.456.506-2.33.506-1.45 0-2.6-.395-3.453-1.183-.852-.789-1.278-1.862-1.278-3.22 0-1.385.556-2.456 1.668-3.213 1.112-.756 2.743-1.134 4.894-1.134h2.037v-1.45c0-.71-.205-1.262-.615-1.654-.41-.392-1.016-.588-1.818-.588-.456 0-.861.053-1.217.157-.355.105-.643.23-.861.376l-.26 1.586h-3.008l.014-3.281c.729-.492 1.565-.907 2.509-1.244.943-.337 1.97-.506 3.083-.506 1.832 0 3.32.449 4.463 1.347 1.144.897 1.716 2.176 1.716 3.835v6.111c0 .228.003.442.007.643.005.2.02.391.048.574l1.217.164v2.392h-4.608zm-3.46-2.666a3.46 3.46 0 0 0 1.641-.39c.492-.259.875-.585 1.148-.977v-2.256h-2.037c-.847 0-1.49.199-1.927.595-.438.397-.657.873-.657 1.429 0 .501.162.893.486 1.176.323.282.772.423 1.346.423zm10.514-.423c.912-.948 1.527-1.88 1.846-2.796.319-.916.497-2.222.533-3.917l.027-2.174-2.091-.41v-2.407h15.175v2.407l-2.133.41v8.914h2.147l-.273 7.492h-3.72v-4.43h-8.722v4.43h-3.732l-.342-7.52h1.285zm6.371-6.713c-.073 1.467-.264 2.755-.574 3.862-.31 1.107-.72 2.062-1.23 2.864h4.826V40.46h-3.008l-.014 1.805zm10.664-2.584v-2.407h5.797l.191 1.723c.438-.638.962-1.13 1.573-1.476.61-.347 1.321-.52 2.133-.52 1.832 0 3.253.715 4.265 2.146 1.012 1.431 1.518 3.314 1.518 5.647v.287c0 2.188-.506 3.947-1.518 5.277-1.012 1.331-2.424 1.997-4.238 1.997-.775 0-1.463-.144-2.065-.431a4.24 4.24 0 0 1-1.544-1.265v4.28l1.927.41v2.406h-7.834v-2.406l1.928-.41V40.09l-2.133-.41zm11.485 5.113c0-1.395-.233-2.525-.698-3.39-.465-.867-1.175-1.3-2.132-1.3-.602 0-1.115.124-1.539.37a2.634 2.634 0 0 0-1.004 1.052v6.48c.246.42.58.74 1.004.958.424.219.946.328 1.566.328.966 0 1.675-.378 2.126-1.135.451-.756.677-1.782.677-3.076v-.287zm15.189 7.273a7.22 7.22 0 0 1-.287-.758 5.985 5.985 0 0 1-.191-.787 5.492 5.492 0 0 1-1.73 1.327c-.679.337-1.456.506-2.331.506-1.45 0-2.6-.395-3.452-1.183-.852-.789-1.278-1.862-1.278-3.22 0-1.385.555-2.456 1.667-3.213 1.112-.756 2.744-1.134 4.895-1.134h2.037v-1.45c0-.71-.205-1.262-.615-1.654-.41-.392-1.016-.588-1.818-.588-.456 0-.862.053-1.217.157-.356.105-.643.23-.862.376l-.26 1.586h-3.007l.013-3.281c.73-.492 1.566-.907 2.51-1.244.943-.337 1.97-.506 3.082-.506 1.832 0 3.32.449 4.464 1.347 1.144.897 1.716 2.176 1.716 3.835v6.111c0 .228.002.442.007.643.004.2.02.391.048.574l1.216.164v2.392h-4.607zm-3.459-2.666a3.46 3.46 0 0 0 1.64-.39c.493-.259.876-.585 1.15-.977v-2.256h-2.038c-.848 0-1.49.199-1.928.595-.437.397-.656.873-.656 1.429 0 .501.162.893.485 1.176.324.282.773.423 1.347.423zm24.541-12.127v5.045h-3.062l-.164-1.996h-2.53v8.942l2.12.41v2.392h-8.245v-2.392l2.12-.41v-8.942h-2.475l-.15 1.996h-3.063v-5.045h15.45z"/>
        <path fill="#FE744E" d="M32.522 40.545c1.066 0 1.854-.246 2.365-.738.51-.493.765-1.18.765-2.065 0-.775-.3-1.413-.902-1.914-.601-.501-1.508-.752-2.72-.752-.784 0-1.475.116-2.072.349-.597.232-1.073.54-1.429.923l-.41 2.474h-2.967v-3.76c.775-.911 1.782-1.65 3.022-2.214 1.24-.565 2.616-.848 4.129-.848 2.26 0 4.047.492 5.36 1.477 1.312.984 1.968 2.388 1.968 4.21 0 .912-.273 1.746-.82 2.502-.547.757-1.3 1.35-2.256 1.778 1.094.392 1.932.982 2.515 1.77.584.789.875 1.748.875 2.878 0 1.832-.706 3.268-2.119 4.307-1.412 1.039-3.254 1.558-5.523 1.558-1.996 0-3.723-.487-5.182-1.462-1.458-.976-2.165-2.398-2.119-4.266l.027-.082h3.883c0 .775.317 1.426.95 1.955.634.529 1.447.793 2.44.793 1.122 0 2.01-.267 2.667-.8.656-.533.984-1.214.984-2.044 0-1.048-.287-1.816-.861-2.303-.574-.488-1.431-.732-2.57-.732h-2.42v-2.994h2.42zm18.662 11.648a7.22 7.22 0 0 1-.287-.758 5.985 5.985 0 0 1-.192-.787 5.492 5.492 0 0 1-1.73 1.327c-.678.337-1.455.505-2.33.505-1.45 0-2.6-.394-3.452-1.182-.853-.789-1.279-1.862-1.279-3.22 0-1.385.556-2.456 1.668-3.213 1.112-.756 2.744-1.135 4.895-1.135h2.037v-1.449c0-.71-.205-1.262-.615-1.654-.41-.392-1.017-.588-1.819-.588-.456 0-.861.052-1.217.157-.355.105-.642.23-.86.376l-.26 1.586h-3.009l.014-3.281c.73-.492 1.566-.907 2.509-1.244.943-.337 1.971-.506 3.083-.506 1.832 0 3.32.449 4.464 1.347 1.144.897 1.716 2.176 1.716 3.835v6.11c0 .229.002.443.006.644.005.2.021.391.048.574l1.217.164v2.392h-4.607zm-3.46-2.666a3.46 3.46 0 0 0 1.641-.39c.493-.26.875-.585 1.149-.977v-2.256h-2.037c-.848 0-1.49.199-1.928.595-.438.397-.656.873-.656 1.429 0 .501.161.893.485 1.176.324.282.773.423 1.347.423z"/>
        <path fill="#FFF" d="M68.336 15.132c-.472 0-.89-.076-1.254-.228a2.432 2.432 0 0 1-.912-.648 2.81 2.81 0 0 1-.552-.996 4.165 4.165 0 0 1-.186-1.284c0-.464.06-.898.18-1.302s.302-.756.546-1.056c.244-.3.548-.536.912-.708.364-.172.794-.258 1.29-.258.352 0 .682.042.99.126.308.084.58.214.816.39.236.176.43.398.582.666.152.268.248.586.288.954H69.98c-.08-.392-.248-.696-.504-.912-.256-.216-.6-.324-1.032-.324-.368 0-.676.068-.924.204a1.647 1.647 0 0 0-.594.54 2.272 2.272 0 0 0-.318.774 4.22 4.22 0 0 0-.096.906c0 .288.034.568.102.84.068.272.174.514.318.726.144.212.33.382.558.51.228.128.506.192.834.192.504 0 .898-.132 1.182-.396.284-.264.458-.636.522-1.116h1.044c-.112.776-.396 1.37-.852 1.782-.456.412-1.084.618-1.884.618zm3.876-6.336h1.02v2.964l2.844-2.964h1.356l-2.748 2.688L77.756 15h-1.308l-2.592-2.952-.624.612V15h-1.02V8.796zm8.988 6.336c-.496 0-.93-.082-1.302-.246a2.662 2.662 0 0 1-.942-.684 2.903 2.903 0 0 1-.576-1.026 4.075 4.075 0 0 1-.192-1.272c0-.456.064-.882.192-1.278s.32-.74.576-1.032c.256-.292.57-.522.942-.69.372-.168.806-.252 1.302-.252.488 0 .92.084 1.296.252.376.168.692.398.948.69.256.292.448.636.576 1.032.128.396.192.822.192 1.278 0 .456-.064.88-.192 1.272s-.32.734-.576 1.026a2.65 2.65 0 0 1-.948.684 3.215 3.215 0 0 1-1.296.246zm0-.888c.264 0 .514-.052.75-.156.236-.104.442-.254.618-.45s.314-.44.414-.732c.1-.292.15-.626.15-1.002s-.05-.71-.15-1.002a2.162 2.162 0 0 0-.414-.738 1.763 1.763 0 0 0-.618-.456 1.84 1.84 0 0 0-.75-.156 1.84 1.84 0 0 0-.75.156 1.763 1.763 0 0 0-.618.456c-.176.2-.314.446-.414.738-.1.292-.15.626-.15 1.002s.05.71.15 1.002c.1.292.238.536.414.732.176.196.382.346.618.45.236.104.486.156.75.156zm4.164.828c-.104 0-.212-.01-.324-.03a6.942 6.942 0 0 1-.276-.054v-.9a1.312 1.312 0 0 0 .42.06.686.686 0 0 0 .606-.312c.14-.208.244-.528.312-.96.068-.432.11-.986.126-1.662.016-.676.032-1.482.048-2.418h4.356V15h-1.02V9.696H87.26c-.024.728-.05 1.418-.078 2.07a9.55 9.55 0 0 1-.21 1.71c-.112.488-.292.876-.54 1.164-.248.288-.604.432-1.068.432zm6.864-6.276h1.02v2.376h2.208c.608 0 1.096.166 1.464.498.368.332.552.798.552 1.398 0 .584-.176 1.052-.528 1.404-.352.352-.832.528-1.44.528h-3.276V8.796zm2.904 5.304c.856 0 1.284-.344 1.284-1.032 0-.68-.428-1.02-1.284-1.02h-1.884V14.1h1.884zm3.444-5.304h1.02v2.964l2.844-2.964h1.356l-2.748 2.688L104.12 15h-1.308l-2.592-2.952-.624.612V15h-1.02V8.796zm8.988 6.336c-.496 0-.93-.082-1.302-.246a2.662 2.662 0 0 1-.942-.684 2.903 2.903 0 0 1-.576-1.026 4.075 4.075 0 0 1-.192-1.272c0-.456.064-.882.192-1.278s.32-.74.576-1.032c.256-.292.57-.522.942-.69.372-.168.806-.252 1.302-.252.488 0 .92.084 1.296.252.376.168.692.398.948.69.256.292.448.636.576 1.032.128.396.192.822.192 1.278 0 .456-.064.88-.192 1.272s-.32.734-.576 1.026a2.65 2.65 0 0 1-.948.684 3.215 3.215 0 0 1-1.296.246zm0-.888c.264 0 .514-.052.75-.156.236-.104.442-.254.618-.45s.314-.44.414-.732c.1-.292.15-.626.15-1.002s-.05-.71-.15-1.002a2.162 2.162 0 0 0-.414-.738 1.763 1.763 0 0 0-.618-.456 1.84 1.84 0 0 0-.75-.156 1.84 1.84 0 0 0-.75.156 1.763 1.763 0 0 0-.618.456c-.176.2-.314.446-.414.738-.1.292-.15.626-.15 1.002s.05.71.15 1.002c.1.292.238.536.414.732.176.196.382.346.618.45.236.104.486.156.75.156zm7.548-5.448h2.868c.272 0 .534.02.786.06.252.04.478.114.678.222.2.108.36.262.48.462s.18.456.18.768c0 .336-.08.608-.24.816-.16.208-.384.38-.672.516v.012c.36.072.646.24.858.504.212.264.318.604.318 1.02 0 .264-.046.508-.138.732a1.65 1.65 0 0 1-.39.576c-.168.16-.368.286-.6.378a2.033 2.033 0 0 1-.756.138h-3.372V8.796zm3.18 5.34c.336 0 .59-.098.762-.294.172-.196.258-.442.258-.738 0-.28-.092-.504-.276-.672-.184-.168-.492-.252-.924-.252h-1.992v1.956h2.172zm-.42-2.796c.44 0 .746-.08.918-.24a.827.827 0 0 0 .258-.636c0-.256-.084-.454-.252-.594-.168-.14-.476-.21-.924-.21h-1.752v1.68h1.752zm3.72-2.544h1.02v2.376h1.92c.608 0 1.096.166 1.464.498.368.332.552.798.552 1.398 0 .584-.176 1.052-.528 1.404-.352.352-.832.528-1.44.528h-2.988V8.796zm2.616 5.304c.856 0 1.284-.344 1.284-1.032 0-.68-.428-1.02-1.284-1.02h-1.596V14.1h1.596zm3.324-5.304h1.02V15h-1.02V8.796zm5.916 0h4.248v.9h-3.228V15h-1.02V8.796zm7.74 6.336c-.496 0-.93-.082-1.302-.246a2.662 2.662 0 0 1-.942-.684 2.903 2.903 0 0 1-.576-1.026 4.075 4.075 0 0 1-.192-1.272c0-.456.064-.882.192-1.278s.32-.74.576-1.032c.256-.292.57-.522.942-.69.372-.168.806-.252 1.302-.252.488 0 .92.084 1.296.252.376.168.692.398.948.69.256.292.448.636.576 1.032.128.396.192.822.192 1.278 0 .456-.064.88-.192 1.272s-.32.734-.576 1.026a2.65 2.65 0 0 1-.948.684 3.215 3.215 0 0 1-1.296.246zm0-.888c.264 0 .514-.052.75-.156.236-.104.442-.254.618-.45s.314-.44.414-.732c.1-.292.15-.626.15-1.002s-.05-.71-.15-1.002a2.162 2.162 0 0 0-.414-.738 1.763 1.763 0 0 0-.618-.456 1.84 1.84 0 0 0-.75-.156 1.84 1.84 0 0 0-.75.156 1.763 1.763 0 0 0-.618.456c-.176.2-.314.446-.414.738-.1.292-.15.626-.15 1.002s.05.71.15 1.002c.1.292.238.536.414.732.176.196.382.346.618.45.236.104.486.156.75.156zm5.712-4.548h-2.22v-.9h5.46v.9h-2.22V15h-1.02V9.696zm6.732 5.436c-.496 0-.93-.082-1.302-.246a2.662 2.662 0 0 1-.942-.684 2.903 2.903 0 0 1-.576-1.026 4.075 4.075 0 0 1-.192-1.272c0-.456.064-.882.192-1.278s.32-.74.576-1.032c.256-.292.57-.522.942-.69.372-.168.806-.252 1.302-.252.488 0 .92.084 1.296.252.376.168.692.398.948.69.256.292.448.636.576 1.032.128.396.192.822.192 1.278 0 .456-.064.88-.192 1.272s-.32.734-.576 1.026a2.65 2.65 0 0 1-.948.684 3.215 3.215 0 0 1-1.296.246zm0-.888c.264 0 .514-.052.75-.156.236-.104.442-.254.618-.45s.314-.44.414-.732c.1-.292.15-.626.15-1.002s-.05-.71-.15-1.002a2.162 2.162 0 0 0-.414-.738 1.763 1.763 0 0 0-.618-.456 1.84 1.84 0 0 0-.75-.156 1.84 1.84 0 0 0-.75.156 1.763 1.763 0 0 0-.618.456c-.176.2-.314.446-.414.738-.1.292-.15.626-.15 1.002s.05.71.15 1.002c.1.292.238.536.414.732.176.196.382.346.618.45.236.104.486.156.75.156zm4.212-5.448h2.868c.272 0 .534.02.786.06.252.04.478.114.678.222.2.108.36.262.48.462s.18.456.18.768c0 .336-.08.608-.24.816-.16.208-.384.38-.672.516v.012c.36.072.646.24.858.504.212.264.318.604.318 1.02 0 .264-.046.508-.138.732a1.65 1.65 0 0 1-.39.576c-.168.16-.368.286-.6.378a2.033 2.033 0 0 1-.756.138h-3.372V8.796zm3.18 5.34c.336 0 .59-.098.762-.294.172-.196.258-.442.258-.738 0-.28-.092-.504-.276-.672-.184-.168-.492-.252-.924-.252h-1.992v1.956h2.172zm-.42-2.796c.44 0 .746-.08.918-.24a.827.827 0 0 0 .258-.636c0-.256-.084-.454-.252-.594-.168-.14-.476-.21-.924-.21h-1.752v1.68h1.752zm3.72-2.544h1.02v2.376h1.92c.608 0 1.096.166 1.464.498.368.332.552.798.552 1.398 0 .584-.176 1.052-.528 1.404-.352.352-.832.528-1.44.528h-2.988V8.796zm2.616 5.304c.856 0 1.284-.344 1.284-1.032 0-.68-.428-1.02-1.284-1.02h-1.596V14.1h1.596zm3.324-5.304h1.02V15h-1.02V8.796zM68.048 29.132c-.824 0-1.468-.184-1.932-.552-.464-.368-.716-.892-.756-1.572h1.032c.032.456.2.784.504.984.304.2.684.3 1.14.3.488 0 .864-.104 1.128-.312a.967.967 0 0 0 .396-.792c0-.312-.1-.556-.3-.732-.2-.176-.54-.264-1.02-.264h-.828v-.828h.66c.36 0 .668-.074.924-.222.256-.148.384-.406.384-.774 0-.232-.11-.436-.33-.612-.22-.176-.546-.264-.978-.264-.184 0-.366.02-.546.06-.18.04-.342.104-.486.192a1.149 1.149 0 0 0-.36.348c-.096.144-.156.32-.18.528h-1.032c.024-.384.116-.702.276-.954.16-.252.36-.452.6-.6.24-.148.512-.254.816-.318.304-.064.612-.096.924-.096.32 0 .62.032.9.096s.526.166.738.306c.212.14.38.314.504.522.124.208.186.456.186.744 0 .36-.102.652-.306.876a1.305 1.305 0 0 1-.69.42v.024c.144.024.288.072.432.144.144.072.272.17.384.294.112.124.204.276.276.456.072.18.108.39.108.63 0 .336-.072.628-.216.876a1.832 1.832 0 0 1-.576.612c-.24.16-.514.28-.822.36a3.78 3.78 0 0 1-.954.12zm5.508 0c-.28 0-.544-.03-.792-.09a1.783 1.783 0 0 1-.654-.3 1.468 1.468 0 0 1-.444-.54 1.797 1.797 0 0 1-.162-.798c0-.352.06-.64.18-.864a1.57 1.57 0 0 1 .474-.546c.196-.14.42-.246.672-.318.252-.072.51-.132.774-.18.28-.056.546-.098.798-.126.252-.028.474-.068.666-.12a1.11 1.11 0 0 0 .456-.228c.112-.1.168-.246.168-.438 0-.224-.042-.404-.126-.54a.864.864 0 0 0-.324-.312 1.317 1.317 0 0 0-.444-.144 3.353 3.353 0 0 0-.486-.036c-.432 0-.792.082-1.08.246-.288.164-.444.474-.468.93h-1.02c.016-.384.096-.708.24-.972a1.82 1.82 0 0 1 .576-.642c.24-.164.514-.282.822-.354.308-.072.638-.108.99-.108.28 0 .558.02.834.06.276.04.526.122.75.246.224.124.404.298.54.522.136.224.204.516.204.876v3.192c0 .24.014.416.042.528.028.112.122.168.282.168.072 0 .176-.02.312-.06v.792c-.176.104-.42.156-.732.156-.264 0-.474-.074-.63-.222-.156-.148-.234-.39-.234-.726a2.44 2.44 0 0 1-.978.726 3.233 3.233 0 0 1-1.206.222zm.228-.888c.336 0 .624-.046.864-.138.24-.092.436-.208.588-.348.152-.14.264-.292.336-.456.072-.164.108-.318.108-.462v-1.044a1.122 1.122 0 0 1-.504.216c-.208.04-.426.076-.654.108l-.69.096c-.232.032-.44.088-.624.168-.184.08-.334.194-.45.342-.116.148-.174.35-.174.606 0 .168.034.31.102.426a.85.85 0 0 0 .264.282c.108.072.234.124.378.156s.296.048.456.048zm4.5-5.448h5.064V29h-1.02v-5.304h-3.024V29h-1.02v-6.204zm6.552 6.276c-.104 0-.212-.01-.324-.03a6.942 6.942 0 0 1-.276-.054v-.9a1.312 1.312 0 0 0 .42.06.686.686 0 0 0 .606-.312c.14-.208.244-.528.312-.96.068-.432.11-.986.126-1.662.016-.676.032-1.482.048-2.418h4.356V29h-1.02v-5.304h-2.352c-.024.728-.05 1.418-.078 2.07a9.55 9.55 0 0 1-.21 1.71c-.112.488-.292.876-.54 1.164-.248.288-.604.432-1.068.432zm8.52.06c-.28 0-.544-.03-.792-.09a1.783 1.783 0 0 1-.654-.3 1.468 1.468 0 0 1-.444-.54 1.797 1.797 0 0 1-.162-.798c0-.352.06-.64.18-.864a1.57 1.57 0 0 1 .474-.546c.196-.14.42-.246.672-.318.252-.072.51-.132.774-.18.28-.056.546-.098.798-.126.252-.028.474-.068.666-.12a1.11 1.11 0 0 0 .456-.228c.112-.1.168-.246.168-.438 0-.224-.042-.404-.126-.54a.864.864 0 0 0-.324-.312 1.317 1.317 0 0 0-.444-.144 3.353 3.353 0 0 0-.486-.036c-.432 0-.792.082-1.08.246-.288.164-.444.474-.468.93h-1.02c.016-.384.096-.708.24-.972a1.82 1.82 0 0 1 .576-.642c.24-.164.514-.282.822-.354.308-.072.638-.108.99-.108.28 0 .558.02.834.06.276.04.526.122.75.246.224.124.404.298.54.522.136.224.204.516.204.876v3.192c0 .24.014.416.042.528.028.112.122.168.282.168.072 0 .176-.02.312-.06v.792c-.176.104-.42.156-.732.156-.264 0-.474-.074-.63-.222-.156-.148-.234-.39-.234-.726a2.44 2.44 0 0 1-.978.726 3.233 3.233 0 0 1-1.206.222zm.228-.888c.336 0 .624-.046.864-.138.24-.092.436-.208.588-.348.152-.14.264-.292.336-.456.072-.164.108-.318.108-.462v-1.044a1.122 1.122 0 0 1-.504.216c-.208.04-.426.076-.654.108l-.69.096c-.232.032-.44.088-.624.168-.184.08-.334.194-.45.342-.116.148-.174.35-.174.606 0 .168.034.31.102.426a.85.85 0 0 0 .264.282c.108.072.234.124.378.156s.296.048.456.048zm6-4.548h-2.22v-.9h5.46v.9h-2.22V29h-1.02v-5.304zm4.056-.9h1.02v5.064l2.928-5.064h1.308V29h-1.02v-5.064L104.948 29h-1.308v-6.204zm8.292.9h-2.22v-.9h5.46v.9h-2.22V29h-1.02v-5.304zm4.116-.9h1.02v2.376h2.208c.608 0 1.096.166 1.464.498.368.332.552.798.552 1.398 0 .584-.176 1.052-.528 1.404-.352.352-.832.528-1.44.528h-3.276v-6.204zm2.904 5.304c.856 0 1.284-.344 1.284-1.032 0-.68-.428-1.02-1.284-1.02h-1.884V28.1h1.884z"/>
    </g>
</svg>
