<?xml version="1.0" encoding="utf-8"?>
<svg style="display:none" version="1.1" xmlns="http://www.w3.org/2000/svg" xmlns:xlink="http://www.w3.org/1999/xlink">
    <symbol id="01" width="120" height="120" viewBox="0 0 120 120">
        <path fill-rule="nonzero" d="M59.9 45.75h1.2c10.2 0 18.45-8.4 18.45-18.75 0-4.35-1.2-6.9-2.25-8.1 0 0-.15-.15-.3-.45l-.15-.15c-1.35-1.35-5.7-4.5-15.75-4.5h-.45-.15-.6c-10.05 0-14.4 3.15-15.75 4.5l-.15.15c-.3.3-.3.45-.3.45-1.05 1.35-2.25 3.75-2.25 8.1 0 10.35 8.25 18.75 18.45 18.75zm-15.15-26.1l.3-.3.15-.15c1.05-.9 5.1-4.05 15-4.05h1.2c9.9 0 13.95 3.15 15 4.05l.15.15.3.3c.75.9 2.1 3.15 2.1 7.35 0 9.6-7.8 17.55-17.25 17.55h-1.2c-9.6 0-17.25-7.8-17.25-17.55-.6-4.35.75-6.45 1.5-7.35zM52.25 57v19.95h16.5V57h-16.5zm15.3 18.75h-14.1V58.2h14.1v17.55zM60.5 60.9h4.05v1.2h-8.1v-1.2h4.05zm0 3.15h4.05v1.2h-8.1v-1.2h4.05zm0 3h4.05v1.2h-8.1v-1.2h4.05zm1.65 5.25c0 .9-.75 1.65-1.65 1.65-.9 0-1.65-.75-1.65-1.65 0-.9.75-1.65 1.65-1.65.9 0 1.65.75 1.65 1.65zM86.9 49.35V30c0-1.65-1.35-3-3-3h-.75v.6c0-12-9.9-21.6-22.2-21.6h-1.2c-12.3 0-22.2 9.75-22.2 21.6V27h-.75c-1.65 0-3 1.35-3 3v19.35c-1.2 2.55-1.8 5.4-1.8 8.4v27.3h2.1c.45 4.2 3.75 7.35 7.8 7.8V114h37.05V92.85c4.05-.45 7.35-3.75 7.8-7.8h2.1v-27.3c0-3-.75-5.85-1.95-8.4zm-3-20.25c.6 0 1.05.45 1.05 1.05V45.9c-1.5-2.1-3.45-4.05-5.7-5.7 2.25-3.15 3.75-6.9 4.05-10.95h.6v-.15zm-24-21.15h1.2c11.1 0 20.1 8.85 20.1 19.65 0 10.8-9 19.65-20.1 19.65h-1.2c-11.1 0-20.1-8.85-20.1-19.65 0-10.8 9-19.65 20.1-19.65zM36.05 30c0-.6.45-1.05 1.05-1.05h.75c.3 4.05 1.65 7.8 4.05 10.95-2.25 1.65-4.2 3.6-5.7 5.7V30h-.15zm6.15 61.05c-3-.45-5.4-2.85-5.85-5.85h5.85v5.85zm17.25 21h-15.3v-2.4h15.3v2.4zm-15.3-4.5c.45-3.9 3.75-7.05 7.65-7.05 3.9 0 7.2 3 7.65 7.05h-15.3zm32.7 4.5h-15.3v-2.4h15.3v2.4zm-15.3-4.5c.45-3.9 3.75-7.05 7.65-7.05 3.9 0 7.2 3 7.65 7.05h-15.3zm17.25-16.5V85.2h5.85c-.45 3-2.85 5.4-5.85 5.85zm7.95-7.95H78.8V65.4h-1.95v37.05c-1.8-2.4-4.5-3.9-7.65-3.9-3.15 0-6 1.65-7.8 4.05V87.9h-1.8v14.7c-1.8-2.4-4.65-4.05-7.8-4.05-3.15 0-5.85 1.5-7.65 3.9V65.4H42.2v17.7h-7.95V57.75c0-6.45 3.45-12.3 8.85-16.2 4.05 4.65 10.05 7.65 16.95 7.65h1.2c6.75 0 12.75-3 16.95-7.65 5.4 3.9 8.85 9.75 8.85 16.2V83.1h-.3z"/>
    </symbol>
    <symbol id="02" width="120" height="120" viewBox="0 0 120 120">
        <path fill-rule="nonzero" d="M55.85 46.1c10.35 0 18.75-8.55 18.75-18.9 0-4.5-1.2-6.9-2.25-8.25-3-4.65-13.05-5.1-16.05-5.1h-.45c-10.2 0-14.55 3.15-15.9 4.5v.15c-.3.3-.3.45-.3.45-1.05 1.35-2.4 3.75-2.4 8.25 0 10.35 8.25 18.9 18.6 18.9zm-15.3-26.4l.3-.3.15-.15c1.05-.9 5.1-4.05 15-4.05h.45c1.95 0 12.3.15 14.85 4.5.75.9 1.95 3.15 1.95 7.35 0 9.75-7.8 17.55-17.4 17.55-9.6 0-17.4-7.95-17.4-17.55.15-4.2 1.35-6.3 2.1-7.35zM88.4 64.4V49.55l-5.85 1.2c-.15-.45-.3-.75-.45-1.2V30.2c0-1.65-1.35-3.15-3.15-3.15h-.6C78.05 15.35 68.15 5.9 56 5.9c-12.15 0-22.05 9.45-22.35 21.3h-.75c-1.65 0-3.15 1.35-3.15 3.15v19.5c-.15.3-.3.6-.45 1.05l-5.85-1.2v14.85c-1.35.6-2.1 1.95-1.95 3.45l.9 7.5c.15.9.45 1.5 1.05 2.1V89l13.8 2.7v23.7H74.3v-6-17.85l13.95-2.7v-11.4c.6-.45 1.05-1.2 1.05-2.1l.9-7.5c.3-1.5-.45-2.85-1.8-3.45zm-9.45-35.1c.6 0 1.05.45 1.05 1.05V46.1c-1.5-2.1-3.45-4.05-5.7-5.7 2.25-3.15 3.75-6.9 4.05-10.95h.6v-.15zM56 8c11.25 0 20.25 8.85 20.25 19.8 0 10.95-9.15 19.65-20.25 19.65-11.25 0-20.25-8.85-20.25-19.8C35.75 16.7 44.75 8 56 8zM31.85 30.2c0-.6.45-1.05 1.05-1.05h.75c.3 4.05 1.8 7.8 4.05 11.1-2.25 1.65-4.2 3.6-5.7 5.85V30.2h-.15zm7.05 11.7c4.05 4.65 10.2 7.65 17.1 7.65 6.9 0 12.9-3 17.1-7.8 3.45 2.55 6 5.7 7.5 9.3L56 56l-24.6-4.8c1.5-3.6 4.05-6.9 7.5-9.3zM24.35 75.05l-.75-6.75-.15-.75c0-.3 0-.45.15-.6.15-.45.6-.9 1.2-.9 0 0 .3 0 .6-.15h1.05c2.7 0 4.95 1.95 5.25 4.65.3 2.55-1.35 4.95-3.75 5.55-.3 0-1.2.15-1.95.3h-.45c-.6-.3-1.05-.75-1.2-1.35zm1.05 3.15h.75c1.65-.15 2.1-.3 2.25-.3 3.3-.9 5.55-4.2 5.1-7.65-.45-3.6-3.45-6.3-7.05-6.3h-.75-.3V51.8l3.3.6 1.95.45 24.3 4.8v35.4l-29.7-5.85v-9h.15zm29.55 34.95H39.5v-2.4h15.45v2.4zM39.5 108.5c.45-4.05 3.75-7.05 7.65-7.05 3.9 0 7.2 3.15 7.65 7.05H39.5zm7.8-9c-3.15 0-6 1.5-7.8 3.9V91.85l15.6 3v8.7c-1.8-2.4-4.65-4.05-7.8-4.05zm25.2 13.65H57.05v-2.4H72.5v2.4zm-15.45-4.65c.45-4.05 3.75-7.05 7.65-7.05 3.9 0 7.2 3.15 7.65 7.05h-15.3zm15.45-5.1c-1.8-2.4-4.65-3.9-7.8-3.9-3.3 0-6.15 1.65-7.95 4.2V95l15.6-3v11.4h.15zm14.1-16.2l-29.7 5.85v-35.4l24.3-4.8 1.95-.45 3.3-.6v12.15H85.4c-3.6 0-6.6 2.7-7.05 6.3-.45 3.45 1.8 6.75 5.1 7.65.15 0 .6.15 2.25.3h.75v9h.15zm1.8-18.9l-.75 6.75c0 .6-.6 1.05-1.05 1.2h-.45c-.75-.15-1.65-.3-1.95-.3-2.55-.75-4.05-3-3.75-5.55.3-2.7 2.55-4.65 5.25-4.65h1.05c.3 0 .6.15.6.15.6 0 1.05.45 1.2.9.15.15.15.45.15.6l-.3.9z"/>
    </symbol>
    <symbol id="03" width="120" height="120" viewBox="0 0 120 120">
        <path fill-rule="nonzero" d="M85.9 79.5H29.2V110.85h3.9v-27.9h8.4V108.9H77.8V82.95h8.4v27.9h3.9V79.5h-4.2zm-41.85 3.45c-.3.3-.45.6-.75.9v-.9h.75zm-.75 5.7c.45-2.55 1.95-4.5 3.9-5.7h7.05c2.1 1.2 3.75 3.3 4.05 6v8.1c-1.8-2.25-4.5-3.6-7.35-3.6-3.15 0-5.85 1.5-7.65 3.9v-8.7zm15.15 12.9v.6h-15c.45-3.9 3.6-6.9 7.5-6.9 3.75.15 6.75 2.7 7.5 6.3zm0 2.85v2.4h-15v-2.55l15 .15zm-.9-21.45h3.75c-.75.75-1.35 1.65-1.8 2.7-.6-1.05-1.2-1.95-1.95-2.7zm2.85 6c.3-2.55 1.8-4.8 4.05-6h7.05c2.1 1.2 3.75 3.3 4.05 6v8.4c-1.8-2.4-4.5-3.9-7.65-3.9-3.15 0-5.85 1.65-7.65 4.05v-8.55h.15zm.15 13.35c.45-3.9 3.6-6.9 7.5-6.9s7.05 3 7.5 6.9h-15zm15.15 4.35h-15v-2.4h15v2.4zm0-22.65c-.3-.3-.6-.75-.9-1.05h.9V84zM59.8 48.45c10.05 0 18.3-8.25 18.3-18.45 0-4.35-1.2-6.75-2.25-8.1 0 0-.15-.15-.3-.45l-.15-.15c-1.35-1.35-5.7-4.35-15.6-4.35h-.45c-3 0-12.75.3-15.75 4.95-.9 1.35-2.1 3.75-2.1 8.1 0 10.2 8.25 18.45 18.3 18.45zm-15-25.65c2.7-4.2 12.6-4.35 14.7-4.35h.45c9.75 0 13.65 3.15 14.7 4.05l.15.15.3.3c.75.9 1.95 3 1.95 7.2 0 9.45-7.65 17.25-16.95 17.25-9.3 0-16.95-7.65-16.95-17.25-.3-4.35.9-6.45 1.65-7.35zm-6.3 56.4l1.5-1.5c-5.4-4.65-7.5-10.65-6.3-17.55.6-3.3 1.65-5.85 2.55-7.5.15-.15.15-.3.3-.6 1.5-3 3.9-5.55 6.75-7.65 4.05 4.65 10.05 7.5 16.65 7.5 6.45 0 12.45-2.85 16.35-7.2 2.7 2.1 4.8 4.5 6.3 7.35.15.15.15.45.3.6.75 1.65 1.95 4.35 2.55 7.5 1.2 6.9-1.05 12.9-6.3 17.55l1.5 1.5c10.35-9 7.2-20.4 4.8-26.1V33c0-1.65-1.35-3-3-3h-.6c-.3-11.55-10.05-20.85-21.9-20.85-11.85 0-21.6 9.3-21.9 20.85h-.6c-1.65 0-3 1.35-3 3v18.75c-2.7 4.95-7.2 17.7 4.05 27.45zm43.8-47.25c.6 0 1.05.45 1.05 1.05v16.5c-1.5-2.4-3.45-4.5-5.85-6.3 2.4-3.15 3.9-7.05 4.2-11.1h.6v-.15zm-22.5-20.7c10.95 0 19.8 8.7 19.8 19.35 0 10.65-8.85 19.35-19.8 19.35-10.95 0-19.8-8.7-19.8-19.35 0-10.65 8.85-19.35 19.8-19.35zM36.25 33c0-.6.45-1.05 1.05-1.05h.75c.3 4.05 1.65 7.65 3.9 10.8-2.25 1.65-4.05 3.6-5.7 5.7V33zm41.1 43.35V52.5c0-.9-.6-1.65-1.5-1.65H43c-.75 0-1.5.75-1.5 1.65v23.7h-4.8v1.95c0 .9.6 1.65 1.5 1.65h42.75c.75 0 1.5-.75 1.5-1.65V76.2h-5.1v.15zm-17.85-8.7c-1.5 0-2.55-1.2-2.55-2.55 0-1.5 1.2-2.55 2.55-2.55 1.5 0 2.55 1.2 2.55 2.55 0 1.35-1.05 2.55-2.55 2.55z"/>
    </symbol>
    <symbol id="04" width="120" height="120" viewBox="0 0 120 120">
        <path fill-rule="nonzero" d="M38.2 85.15l14.7 15.45-6.9 9.3-.45-4.05L18.4 118.6l17.7-25.5L25 92.05l13.2-6.9zm62.85-17.25C98.5 73.3 94.6 78.55 90.1 83.05c-3.6 10.65-9.6 28.35-9.6 28.35l-.45 1.5-14.7-15.45c-2.4.6-5.7 1.5-9.15 1.95h-.45l-15.6-16.2.15-.45c.6-3.3 1.65-6.6 2.4-9L27.85 58.3l1.5-.45 28.8-8.4h.15c4.65-4.2 10.05-7.95 15.6-10.2 6.9-3 16.8-5.85 24-4.95 2.55.3 4.65 1.2 6.3 2.4.15.15.6.45.6.45l.15.15c.15.15.3.45.45.6 5.7 8.25-2.55 26.4-4.35 30zm-58.2 3.45C45.4 64.3 49.6 57.85 55 52.15 46.3 54.7 35.2 58 31.15 59.2l11.7 12.15zm44.4 14.55c-5.85 5.1-12.6 9-19.65 11.25l11.7 12.15c1.35-3.9 5.1-14.85 7.95-23.4zm16.2-47.1c-.15-.15-.3-.3-.3-.45l-.45-.45c-1.35-1.05-3.15-1.8-5.4-2.1-6.75-.9-16.2 1.95-22.95 4.8-5.4 2.4-11.25 6.3-15.75 10.65C52.15 57.4 47.35 64.9 44.8 73c-.75 2.25-1.8 5.85-2.55 9.45L56.5 97.3c3.6-.6 7.2-1.5 9.45-2.1 8.1-2.25 15.9-6.75 22.35-12.9C92.95 77.95 97 72.25 99.55 67c7.2-14.85 6.6-24.45 3.9-28.2zm-2.55 2.4c3.75 4.95-1.05 15.45-2.1 17.55-1.5 3.15-3.9 6.45-6.75 9.15-3.75 3.6-8.4 6.3-13.2 7.65-1.35.45-3.6.9-5.85 1.2l-.6.15-9.15-9.6.15-.6c.45-2.25 1.05-4.35 1.5-5.7 1.5-4.8 4.35-9.3 8.25-12.9 2.7-2.7 6-4.8 9.3-6.3 1.95-.9 8.55-3.45 13.8-2.85 1.5.15 2.85.75 3.9 1.5.15.15.45.3.45.3.15.15.3.3.3.45zm-1.8 1.35l-.15-.15-.15-.15c-.6-.6-1.65-.9-2.7-1.05-3.6-.45-8.85 1.05-12.6 2.7-3 1.35-6.15 3.45-8.7 5.85-3.6 3.45-6.15 7.5-7.65 12-.45 1.2-.9 3-1.35 4.95l7.65 7.95c1.95-.3 3.75-.75 4.95-1.2 4.5-1.2 8.7-3.75 12.3-7.2 2.55-2.4 4.8-5.55 6.15-8.4 1.95-4.2 4.8-12 2.25-15.3zm-45.8-22.3c3.6.9 7.05 1.35 9.75 1.35 1.8 0 3-.15 3.75-.45.6-6.6-3.6-12.9-10.35-14.7-6.6-1.65-13.35 1.8-16.05 7.8 1.35 1.5 5.55 4.2 12.9 6zm-13.9 3.788c1.35 4.35 4.95 8.1 9.75 9.3 4.8 1.2 9.6-.3 12.9-3.45-3.45-.3-7.35-.9-11.4-1.95-3.9-.9-7.8-2.25-11.25-3.9zm.115-11c-3.9.15-6.6 1.05-7.05 2.7-.9 3.3 7.65 8.4 19.05 11.25 11.4 2.85 21.3 2.55 22.2-.9.45-1.65-1.5-3.75-4.8-5.7v.3c-.6 2.4-7.65 2.55-15.9.45-8.1-2.1-14.25-5.7-13.65-7.95l.15-.15zm49.535.25l2.7-1.35 2.7 1.35-.45-3 2.1-2.1-3-.45-1.35-2.7-1.35 2.7-3 .45 2.1 2.1-.45 3zm-69.45 29.7l-1.05-1.95-.9 1.95-2.25.3 1.65 1.5-.3 2.1 1.95-1.05 1.95 1.05-.3-2.1 1.65-1.5-2.4-.3zm-6-35.1l1.95-1.05 1.95 1.05-.3-2.1 1.5-1.5-2.25-.3-.9-1.95-1.05 1.95-2.1.3 1.5 1.5-.3 2.1z"/>
    </symbol>
</svg>
