<svg xmlns="http://www.w3.org/2000/svg" width="40" height="40" viewBox="0 0 40 40">
    <path fill="#FFF" fill-rule="evenodd" d="M27.237 22.008s1.415 1.397 1.764 2.045c.01.014.015.027.018.034.142.238.175.423.105.561-.117.23-.517.344-.653.354h-2.5c-.174 0-.537-.045-.977-.349-.338-.236-.672-.625-.997-1.003-.485-.563-.905-1.05-1.328-1.05a.508.508 0 0 0-.158.025c-.32.103-.73.56-.73 1.777 0 .38-.3.598-.512.598h-1.145c-.39 0-2.422-.137-4.222-2.035-2.203-2.325-4.186-6.988-4.203-7.032-.125-.301.133-.463.415-.463h2.525c.337 0 .447.205.523.387.09.211.42 1.053.962 2 .878 1.543 1.417 2.17 1.848 2.17a.5.5 0 0 0 .232-.06c.563-.314.458-2.322.433-2.739 0-.078-.001-.898-.29-1.291-.206-.285-.558-.394-.771-.434a.918.918 0 0 1 .331-.281c.387-.194 1.084-.222 1.775-.222h.385c.75.01.944.058 1.215.127.55.131.562.486.514 1.701-.015.345-.03.735-.03 1.195 0 .1-.005.207-.005.32-.017.619-.037 1.32.4 1.609a.36.36 0 0 0 .19.055c.151 0 .608 0 1.845-2.122.541-.937.961-2.042.991-2.123.025-.044.099-.177.185-.229a.443.443 0 0 1 .207-.048h2.968c.324 0 .545.048.587.173.073.199-.013.804-1.368 2.639l-.605.798c-1.229 1.61-1.229 1.692.076 2.913z"/>
</svg>
